<svg width="351" height="349" viewBox="0 0 351 349" fill="none" xmlns="http://www.w3.org/2000/svg">
<path d="M278.589 103.885C278.589 103.885 275.66 101.988 275.144 96.3041C274.628 90.6206 281.352 86.4847 287.21 87.6913C293.069 88.898 299.268 92.5092 297.545 100.615C295.823 108.72 286.677 109.175 283.844 107.907C281.859 106.902 280.078 105.538 278.589 103.885Z" fill="#2B2B2B" stroke="#2B2B2B" stroke-linecap="round" stroke-linejoin="round"/>
<path d="M281.387 92.6841C281.387 92.6841 285.007 89.4139 287.42 90.2708" stroke="#2B2B2B" stroke-linecap="round" stroke-linejoin="round"/>
<path d="M292.448 92.2469C292.494 92.5804 292.437 92.92 292.285 93.2204C292.133 93.5208 291.893 93.7676 291.597 93.9278C291.301 94.088 290.963 94.1539 290.629 94.1168C290.294 94.0797 289.979 93.9412 289.725 93.72C289.471 93.4988 289.291 93.2054 289.209 92.879C289.126 92.5526 289.145 92.2088 289.264 91.8937C289.382 91.5785 289.594 91.3069 289.871 91.1154C290.147 90.9238 290.476 90.8213 290.813 90.8217C291.218 90.7952 291.618 90.9303 291.924 91.1973C292.23 91.4643 292.419 91.8416 292.448 92.2469Z" fill="#F4F4F4" stroke="#2B2B2B" stroke-linecap="round" stroke-linejoin="round"/>
<path d="M279.612 92.8852C279.612 93.4011 279.043 93.8121 278.335 93.8121C277.627 93.8121 277.05 93.4011 277.05 92.8852C277.05 92.3693 277.627 91.9584 278.335 91.9584C279.043 91.9584 279.612 92.3781 279.612 92.8852Z" fill="#F4F4F4" stroke="#2B2B2B" stroke-linecap="round" stroke-linejoin="round"/>
<path d="M290.918 88.2685C290.918 88.2685 287.988 86.3711 287.473 80.6876C286.957 75.004 293.672 70.8594 299.53 72.0661C305.389 73.2727 311.597 76.8927 309.874 84.9895C308.152 93.0864 298.997 93.5498 296.164 92.2907C294.183 91.2836 292.405 89.9201 290.918 88.2685Z" fill="#2B2B2B" stroke="#2B2B2B" stroke-linecap="round" stroke-linejoin="round"/>
<path d="M293.672 77.0675C293.672 77.0675 297.292 73.7886 299.705 74.6542" stroke="#2B2B2B" stroke-linecap="round" stroke-linejoin="round"/>
<path d="M303.098 78.0469C304.006 78.0469 304.742 77.4088 304.742 76.6216C304.742 75.8345 304.006 75.1964 303.098 75.1964C302.19 75.1964 301.454 75.8345 301.454 76.6216C301.454 77.4088 302.19 78.0469 303.098 78.0469Z" fill="#F4F4F4" stroke="#2B2B2B" stroke-linecap="round" stroke-linejoin="round"/>
<path d="M291.906 77.2687C291.906 77.7758 291.329 78.1955 290.62 78.1955C289.912 78.1955 289.335 77.7758 289.335 77.2687C289.335 76.7615 289.912 76.3418 290.62 76.3418C291.329 76.3418 291.906 76.7528 291.906 77.2687Z" fill="#F4F4F4" stroke="#2B2B2B" stroke-linecap="round" stroke-linejoin="round"/>
<path d="M313.005 62.168C312.606 62.1699 312.217 62.0443 311.894 61.8095C311.688 61.664 311.513 61.4793 311.379 61.2659C311.244 61.0525 311.153 60.8147 311.111 60.5661C311.069 60.3175 311.076 60.063 311.132 59.8172C311.189 59.5714 311.293 59.3392 311.439 59.1338L319.685 47.5657C319.99 47.1763 320.434 46.9196 320.924 46.8488C321.413 46.7781 321.912 46.8988 322.315 47.1859C322.718 47.473 322.995 47.9044 323.088 48.3903C323.181 48.8763 323.083 49.3795 322.815 49.7954L314.605 61.3548C314.425 61.6107 314.185 61.8187 313.906 61.9605C313.627 62.1022 313.317 62.1735 313.005 62.168Z" fill="#F4F4F4" stroke="#2B2B2B" stroke-linecap="round" stroke-linejoin="round"/>
<path d="M315.934 55.5839L253.485 47.4084L350 99.382L315.934 55.5839Z" fill="#285E67" stroke="#2B2B2B" stroke-linecap="round" stroke-linejoin="round"/>
<path d="M313.888 56.9304L284.482 56.7818" stroke="#2B2B2B" stroke-linecap="round" stroke-linejoin="round"/>
<path d="M312.401 59.947L307.889 64.1354" stroke="#2B2B2B" stroke-linecap="round" stroke-linejoin="round"/>
<path d="M316.738 59.1863L322.597 69.0844" stroke="#2B2B2B" stroke-linecap="round" stroke-linejoin="round"/>
<path d="M323.795 72.3896L330.099 84.5436" stroke="#2B2B2B" stroke-linecap="round" stroke-linejoin="round"/>
<path d="M287.481 65.3333L296.033 62.4828" stroke="#2B2B2B" stroke-linecap="round" stroke-linejoin="round"/>
<path d="M258.076 49.7342L277.88 51.9814" stroke="#2B2B2B" stroke-linecap="round" stroke-linejoin="round"/>
<path d="M342.104 95.1936L333.999 83.6429" stroke="#2B2B2B" stroke-linecap="round" stroke-linejoin="round"/>
<path d="M235.744 101.559L256.37 165.809L310.845 124.599C308.95 121.63 306.529 119.031 303.701 116.931C301.05 115.191 297.835 114.528 294.712 115.077L293.925 111.379C290.899 109.362 287.715 107.593 284.403 106.089C280.434 104.506 275.152 102.128 274.357 102.923C273.763 103.421 273.015 103.699 272.241 103.71C272.241 103.71 270.125 100.807 269.067 100.274C268.009 99.7405 257.437 98.9535 253.205 98.9535C250.825 98.8843 248.492 99.6309 246.595 101.07C246.595 101.07 243.972 98.9535 242.634 98.9535C241.296 98.9535 235.744 101.559 235.744 101.559Z" fill="#285E67" stroke="#2B2B2B" stroke-linecap="round" stroke-linejoin="round"/>
<path d="M268.542 102.093C267.484 101.559 256.904 100.772 252.681 100.772C250.3 100.703 247.968 101.45 246.07 102.888C246.07 102.888 243.447 100.772 242.101 100.772C241.13 100.772 237.86 102.206 236.207 102.958L256.379 165.809L309.673 125.474C307.902 122.889 305.706 120.624 303.177 118.776C300.525 117.037 297.311 116.374 294.188 116.922L293.392 113.223C290.37 111.204 287.188 109.435 283.879 107.933C279.909 106.351 274.619 103.964 273.832 104.759C273.24 105.262 272.492 105.543 271.716 105.555C271.716 105.555 269.6 102.617 268.542 102.093Z" fill="#FCE2D7" stroke="#2B2B2B" stroke-linecap="round" stroke-linejoin="round"/>
<path d="M303.176 118.75L298.009 124.582" stroke="#2B2B2B" stroke-linecap="round" stroke-linejoin="round"/>
<path d="M290.244 130.108L288.426 132.477" stroke="#2B2B2B" stroke-linecap="round" stroke-linejoin="round"/>
<path d="M294.905 124.022L291.407 128.587" stroke="#2B2B2B" stroke-linecap="round" stroke-linejoin="round"/>
<path d="M273.325 112.498L272.634 114.719" stroke="#2B2B2B" stroke-linecap="round" stroke-linejoin="round"/>
<path d="M275.17 106.543L274.059 110.128" stroke="#2B2B2B" stroke-linecap="round" stroke-linejoin="round"/>
<path d="M246.07 102.888L247.828 112.463" stroke="#2B2B2B" stroke-linecap="round" stroke-linejoin="round"/>
<path d="M250.643 108.519L251.491 116.406" stroke="#2B2B2B" stroke-linecap="round" stroke-linejoin="round"/>
<path d="M217.268 163.606L209.827 165.494L208.778 161.324L206.95 154.127L203.61 140.933L201.8 133.737L198.46 120.542L196.65 113.346L193.301 100.143L191.482 92.9552L188.151 79.7519L186.332 72.5645L183.831 62.6839L191.281 60.8039L191.989 63.602L193.808 70.7982L197.148 83.9927L198.967 91.1889L202.298 104.392L204.117 111.58L207.457 124.783L209.276 131.979L212.607 145.174L214.426 152.361L217.268 163.606Z" fill="#285E67" stroke="#2B2B2B" stroke-linecap="round" stroke-linejoin="round"/>
<path d="M202.298 104.392L196.65 113.346L198.46 120.542L204.117 111.58L202.298 104.392ZM197.148 83.9927L191.482 92.9552L193.301 100.143L198.967 91.1889L197.148 83.9927ZM207.457 124.783L201.8 133.737L203.61 140.933L209.276 131.979L207.457 124.783ZM191.989 63.5758L186.332 72.5383L188.151 79.7257L193.773 70.7982L191.989 63.5758ZM206.959 154.101L212.607 145.147L214.426 152.335L208.778 161.324L206.959 154.101Z" fill="#2B2B2B"/>
<path d="M274.269 340.302H189.226C189.226 340.302 188.431 337.924 193.196 336.603C197.961 335.283 218.833 327.606 220.949 324.441C223.065 321.275 223.861 321.267 223.065 318.093C222.269 314.919 217.25 309.349 218.571 305.143C219.891 300.937 222.278 297.203 222.54 293.776C222.742 291.885 222.469 289.973 221.745 288.215C218.747 286.522 215.908 284.561 213.263 282.356C205.096 275.694 193.861 263.365 193.152 245.632C192.094 217.608 206.898 184.565 201.608 156.278C196.318 127.992 189.707 122.693 192.357 119.554H271.051C273.675 122.728 267.082 128.018 261.8 156.278C256.519 184.539 271.314 217.608 270.256 245.632C269.591 263.347 258.355 275.676 250.145 282.356C247.498 284.558 244.66 286.519 241.663 288.215C240.939 289.973 240.666 291.885 240.868 293.776C241.139 297.203 243.491 300.911 244.837 305.143C246.184 309.375 241.139 314.919 240.343 318.093C239.547 321.267 240.343 321.267 242.459 324.441C244.575 327.615 265.455 335.283 270.221 336.603C274.986 337.924 274.269 340.302 274.269 340.302Z" stroke="#2B2B2B" stroke-linecap="round" stroke-linejoin="round"/>
<path d="M274.269 340.302H189.226C189.226 340.302 188.431 337.924 193.196 336.603C197.961 335.283 218.833 327.606 220.949 324.441C223.065 321.275 223.861 321.267 223.065 318.093C222.269 314.919 217.25 309.349 218.571 305.143C219.891 300.937 222.278 297.203 222.54 293.776C222.742 291.885 222.469 289.973 221.745 288.215C218.747 286.522 215.908 284.561 213.263 282.356H250.224C247.577 284.558 244.738 286.519 241.742 288.215C241.018 289.973 240.745 291.885 240.946 293.776C241.217 297.203 243.569 300.911 244.916 305.143C246.263 309.375 241.217 314.919 240.422 318.093C239.626 321.267 240.422 321.267 242.538 324.441C244.654 327.615 265.534 335.283 270.299 336.603C275.065 337.924 274.269 340.302 274.269 340.302Z" fill="#F4F4F4" stroke="#2B2B2B" stroke-linecap="round" stroke-linejoin="round"/>
<path d="M213.998 330.168C209.774 332.419 205.343 334.261 200.768 335.668C194.376 337.417 199.894 338.789 205.822 336.857C211.75 334.924 212.065 333.438 218.308 333.438C224.551 333.438 221.753 330.736 218.614 330.894C215.475 331.051 215.633 329.127 213.998 330.168Z" fill="#F4F4F4"/>
<path d="M236.26 290.637C236.26 290.637 224.263 292.718 226.536 292.386C228.81 292.053 232.657 294.213 237.239 293.26C238.622 294.909 239.421 296.968 239.512 299.118C239.845 303.027 231.057 300.098 227.472 307.259C223.887 314.42 230.095 315.067 232.718 317.017C235.341 318.967 235.971 320.602 233.365 322.263C230.76 323.925 229.264 318.232 226.86 320.637C224.455 323.042 228.163 325.84 230.436 325.84C232.71 325.84 237.274 324.869 237.921 320.961C238.568 317.052 242.476 313.152 242.809 307.294C242.939 305.031 242.766 302.76 242.293 300.544C241.515 297.116 239.337 295.096 239.337 292.132C239.337 289.168 237.422 290.13 236.26 290.637Z" fill="#F4F4F4"/>
<path d="M243.412 326.836C243.532 327.112 243.592 327.409 243.59 327.709C243.588 328.009 243.523 328.305 243.399 328.578C243.276 328.852 243.096 329.096 242.873 329.296C242.649 329.496 242.386 329.647 242.101 329.739C239.932 330.614 218.614 330.894 218.614 330.894C218.614 330.894 232.683 332.642 240.474 331.768C248.265 330.894 245.721 328.865 247.723 329.591C249.725 330.316 252.506 332.494 250.477 334.234C248.449 335.974 251.491 337.565 236.268 335.248C221.045 332.931 216.7 335.388 213.797 336.839C210.894 338.291 192.628 339.463 192.628 339.463H270.92C270.92 339.463 269.469 337.434 265.56 336.56C261.652 335.685 260.917 337.137 258.014 336.56C255.111 335.983 256.86 335.685 256.134 333.936C255.409 332.188 243.412 326.836 243.412 326.836Z" fill="#F4F4F4"/>
<path d="M233.497 294.913C233.497 294.913 230.926 294.65 227.708 294.265C224.49 293.881 221.01 303.796 221.526 305.729C222.042 307.661 223.843 303.28 227.577 301.479C231.311 299.678 235.446 301.864 235.945 297.746C236.443 293.627 233.497 294.913 233.497 294.913Z" fill="#F4F4F4"/>
<path d="M230.279 317.183C230.279 317.183 224.622 311.132 223.843 314.612C223.065 318.093 232.211 322.98 232.587 320.532C232.963 318.084 230.279 317.183 230.279 317.183Z" fill="#F4F4F4"/>
<path d="M235.105 326.006C235.105 326.006 230.497 327.492 227.525 326.303C224.552 325.114 223.957 325.708 220.984 327.344C218.011 328.979 219.498 330.317 228.416 330.019C237.335 329.722 242.24 328.087 241.051 326.898C239.862 325.708 240.159 324.371 235.105 326.006Z" fill="#F4F4F4"/>
<path d="M201.887 121.653H254.001" stroke="#2B2B2B" stroke-linecap="round" stroke-linejoin="round"/>
<path d="M194.516 121.653H199.579" stroke="#2B2B2B" stroke-linecap="round" stroke-linejoin="round"/>
<path d="M261.835 156.287C262.622 152.108 263.436 148.418 264.24 145.182H199.247C200.06 148.435 200.864 152.108 201.651 156.287C206.941 184.582 192.129 217.625 193.187 245.65C194.245 273.674 221.754 288.215 221.754 288.215C221.754 288.215 228.18 289.544 241.751 288.215C241.751 288.215 269.25 273.674 270.308 245.65C271.366 217.625 256.554 184.582 261.835 156.287Z" fill="#F4F4F4" stroke="#2B2B2B" stroke-linecap="round" stroke-linejoin="round"/>
<path opacity="0.19" d="M262.386 336.201C257.63 334.89 236.749 327.291 234.633 324.152C232.517 321.013 231.722 321.013 232.517 317.865C233.313 314.717 238.332 309.226 237.012 305.038C235.691 300.85 233.304 297.169 233.042 293.776C232.84 291.905 233.114 290.013 233.838 288.276C236.831 286.595 239.669 284.652 242.319 282.47C250.486 275.868 261.722 263.653 262.43 246.104C263.488 218.351 248.685 185.605 253.975 157.59C259.265 129.575 265.875 124.363 263.226 121.18H268.052C270.676 124.328 264.083 129.566 258.801 157.59C253.52 185.614 268.271 218.386 267.222 246.139C266.557 263.688 255.321 275.868 247.154 282.505C244.505 284.687 241.666 286.63 238.673 288.311C237.949 290.048 237.675 291.94 237.877 293.811C238.14 297.212 240.5 300.885 241.847 305.073C243.194 309.261 238.14 314.761 237.353 317.9C236.566 321.039 237.353 321.048 239.469 324.187C241.585 327.326 262.465 334.925 267.222 336.201C271.978 337.478 271.191 339.874 271.191 339.874H266.347C266.347 339.874 267.152 337.539 262.386 336.201Z" fill="#2A2A2A"/>
<path d="M107.034 170.067C107.034 170.067 103.186 164.637 97.7565 163.947C93.8243 163.61 89.8641 163.836 85.996 164.62C85.996 164.62 88.4793 159.872 90.7439 158.499C92.5023 157.496 94.3151 156.591 96.1739 155.789C94.9422 153.301 93.0674 151.187 90.7439 149.668C86.8966 147.185 80.5573 143.337 80.5573 143.337C80.5573 143.337 88.7066 144.011 92.5539 145.147C95.3848 146.078 98.1149 147.291 100.703 148.767C100.703 148.767 94.8186 142.428 90.0619 137.907C85.3052 133.387 75.3547 125.001 75.3547 125.001L67.8612 120.227C72.7862 121.717 77.6284 123.469 82.3673 125.474C88.488 128.193 101.831 137.016 101.831 137.016C101.831 137.016 96.1739 127.485 90.0619 119.353C83.9499 111.221 71.5074 100.79 71.5074 100.79L97.9839 120.901L87.3513 103.929L82.822 99.3994C82.822 99.3994 94.1366 105.52 97.7565 110.259C101.376 114.998 110.208 125.194 110.208 125.194C110.208 125.194 98.6659 89.4489 93.4633 81.0722C88.2607 72.6956 79.6567 64.1003 79.6567 64.1003C79.6567 64.1003 94.3639 69.0756 98.2112 71.3403C102.059 73.6049 103.414 74.9602 103.868 75.6423C104.323 76.3243 102.513 66.1377 96.6286 53.6951C90.7439 41.2526 88.0246 34.6859 88.0246 34.6859C88.0246 34.6859 98.4648 41.5324 103.414 50.5473C108.363 59.5623 114.956 73.8848 114.956 73.8848C114.956 73.8848 107.961 35.639 104.551 28.4166C101.14 21.1941 94.3639 11.2261 94.3639 11.2261C94.3639 11.2261 111.108 24.1233 114.475 39.2852L117.867 54.4384C117.867 54.4384 114.728 37.2042 112.455 22.497C110.182 7.78977 109.744 1.22312 109.744 0.541099C109.744 -0.140924 115.629 7.78103 119.022 15.2483C121.535 21.1387 123.357 27.3005 124.452 33.6104C124.906 36.0937 123.997 25.4612 125.58 17.9939C127.162 10.5266 128.526 6.22462 128.754 4.87806C128.981 3.5315 131.692 17.9939 132.374 29.3172C133.056 40.6405 132.819 57.3763 132.819 57.3763C132.819 57.3763 140.514 41.7597 142.097 37.9124C143.679 34.0651 146.853 30.0429 147.081 29.0899C146.461 35.7006 145.409 42.2638 143.933 48.7374C141.896 57.114 140.995 60.734 140.995 60.734L141.222 66.6186C141.222 66.6186 155.213 40.387 160.459 32.2202C165.705 24.0534 174.449 17.0583 174.449 17.0583C174.449 17.0583 173.575 22.0423 167.454 39.2415C163.262 50.958 157.957 62.2455 151.61 72.9492C150.027 75.4412 147.763 79.9443 147.089 81.3258C146.416 82.7073 147.535 92.1857 147.535 92.1857C147.535 92.1857 159.777 84.9458 169.264 80.4164C178.751 75.8871 196.186 72.7306 196.186 72.7306C196.186 72.7306 175.376 81.0984 168.809 87.6651C162.243 94.2318 148.445 105.083 148.445 105.083L148.672 114.815C148.672 114.815 164.962 102.372 176.049 97.6156C187.136 92.859 195.058 91.9583 195.058 91.9583L165.871 112.358C158.404 117.56 149.8 124.354 149.8 124.354C149.8 124.354 167.909 115.532 182.389 115.077C182.389 115.077 157.031 130.912 154.557 134.532C152.082 138.152 148.217 142.227 147.763 142.909C147.308 143.591 159.532 138.834 166.545 137.024C171.39 135.833 176.301 134.925 181.252 134.305C174.085 136.169 167.286 139.231 161.141 143.364C150.508 150.359 146.372 151.81 145.271 153.131L144.169 154.451C144.169 154.451 167.48 146.074 173.137 144.719C177.005 143.915 180.98 143.762 184.898 144.264C184.898 144.264 168.897 146.695 161.508 153.882C154.12 161.07 144.405 170.146 133.877 169.552C123.35 168.957 117.474 168.957 115.437 168.73C113.399 168.502 107.034 170.067 107.034 170.067Z" fill="#285E67" stroke="#2B2B2B" stroke-miterlimit="10"/>
<path opacity="0.2" d="M107.034 170.067C107.034 170.067 103.186 164.637 97.7565 163.947C93.8243 163.61 89.8641 163.836 85.996 164.62C85.996 164.62 88.4793 159.872 90.7439 158.499C92.5023 157.496 94.3151 156.591 96.1739 155.789C94.9422 153.301 93.0674 151.187 90.7439 149.668C86.8966 147.185 80.5573 143.337 80.5573 143.337C80.5573 143.337 88.7066 144.011 92.5539 145.147C95.3848 146.078 98.1149 147.291 100.703 148.767C100.703 148.767 94.8186 142.428 90.0619 137.907C85.3052 133.387 75.3547 125.001 75.3547 125.001L67.8612 120.227C72.7862 121.717 77.6284 123.469 82.3673 125.474C88.488 128.193 101.831 137.016 101.831 137.016C101.831 137.016 96.1739 127.485 90.0619 119.353C83.9499 111.221 71.5074 100.79 71.5074 100.79L97.9839 120.901L87.3513 103.929L82.822 99.3994C82.822 99.3994 94.1366 105.52 97.7565 110.259C101.376 114.998 110.208 125.194 110.208 125.194C110.208 125.194 98.6659 89.4489 93.4633 81.0722C88.2607 72.6956 79.6567 64.1003 79.6567 64.1003C79.6567 64.1003 94.3639 69.0756 98.2112 71.3403C102.059 73.6049 103.414 74.9602 103.868 75.6423C104.323 76.3243 102.513 66.1377 96.6286 53.6951C90.7439 41.2526 88.0246 34.6859 88.0246 34.6859C88.0246 34.6859 98.4648 41.5324 103.414 50.5473C108.363 59.5623 114.956 73.8848 114.956 73.8848C114.956 73.8848 107.961 35.639 104.551 28.4166C101.14 21.1941 94.3639 11.2261 94.3639 11.2261C94.3639 11.2261 111.108 24.1233 114.475 39.2852L117.867 54.4384C117.867 54.4384 114.728 37.2042 112.455 22.497C110.182 7.78977 109.744 1.22312 109.744 0.541099C109.744 -0.140924 115.629 7.78103 119.022 15.2483C121.535 21.1387 123.357 27.3005 124.452 33.6104C124.906 36.0937 123.997 25.4612 125.58 17.9939C127.162 10.5266 128.526 6.22462 128.754 4.87806C128.981 3.5315 131.692 17.9939 132.374 29.3172C133.056 40.6405 132.819 57.3763 132.819 57.3763C132.819 57.3763 140.514 41.7597 142.097 37.9124C143.679 34.0651 146.853 30.0429 147.081 29.0899C146.461 35.7006 145.409 42.2638 143.933 48.7374C141.896 57.114 140.995 60.734 140.995 60.734L141.222 66.6186C141.222 66.6186 155.213 40.387 160.459 32.2202C165.705 24.0534 174.449 17.0583 174.449 17.0583C174.449 17.0583 173.575 22.0423 167.454 39.2415C163.262 50.958 157.957 62.2455 151.61 72.9492C150.027 75.4412 147.763 79.9443 147.089 81.3258C146.416 82.7073 147.535 92.1857 147.535 92.1857C147.535 92.1857 159.777 84.9458 169.264 80.4164C178.751 75.8871 196.186 72.7306 196.186 72.7306C196.186 72.7306 175.376 81.0984 168.809 87.6651C162.243 94.2318 148.445 105.083 148.445 105.083L148.672 114.815C148.672 114.815 164.962 102.372 176.049 97.6156C187.136 92.859 195.058 91.9583 195.058 91.9583L165.871 112.358C158.404 117.56 149.8 124.354 149.8 124.354C149.8 124.354 167.909 115.532 182.389 115.077C182.389 115.077 157.031 130.912 154.557 134.532C152.082 138.152 148.217 142.227 147.763 142.909C147.308 143.591 159.532 138.834 166.545 137.024C171.39 135.833 176.301 134.925 181.252 134.305C174.085 136.169 167.286 139.231 161.141 143.364C150.508 150.359 146.372 151.81 145.271 153.131L144.169 154.451C144.169 154.451 167.48 146.074 173.137 144.719C177.005 143.915 180.98 143.762 184.898 144.264C184.898 144.264 168.897 146.695 161.508 153.882C154.12 161.07 144.405 170.146 133.877 169.552C123.35 168.957 117.474 168.957 115.437 168.73C113.399 168.502 107.034 170.067 107.034 170.067Z" fill="#2A2A2A" stroke="#2B2B2B" stroke-miterlimit="10"/>
<path d="M107.034 170.067C107.034 170.067 103.186 164.637 97.7565 163.947C93.8243 163.61 89.8641 163.836 85.996 164.62C85.996 164.62 88.4793 159.872 90.7439 158.499C92.5023 157.496 94.3151 156.591 96.1739 155.789C94.9422 153.301 93.0674 151.187 90.7439 149.668C86.8966 147.185 80.5573 143.337 80.5573 143.337C80.5573 143.337 88.7066 144.011 92.5539 145.147C95.3848 146.078 98.1149 147.291 100.703 148.767C100.703 148.767 94.8186 142.428 90.0619 137.907C85.3052 133.387 75.3547 125.001 75.3547 125.001L67.8612 120.227C72.7862 121.717 77.6284 123.469 82.3673 125.474C88.488 128.193 101.831 137.016 101.831 137.016C101.831 137.016 96.1739 127.485 90.0619 119.353C83.9499 111.221 71.5074 100.79 71.5074 100.79L97.9839 120.901L87.3513 103.929L82.822 99.3994C82.822 99.3994 94.1366 105.52 97.7565 110.259C101.376 114.998 110.208 125.194 110.208 125.194C110.208 125.194 98.6659 89.4489 93.4633 81.0722C88.2607 72.6956 79.6567 64.1003 79.6567 64.1003C79.6567 64.1003 94.3639 69.0756 98.2112 71.3403C102.059 73.6049 103.414 74.9602 103.868 75.6423C104.323 76.3243 102.513 66.1377 96.6286 53.6951C90.7439 41.2526 88.0246 34.6859 88.0246 34.6859C88.0246 34.6859 98.4648 41.5324 103.414 50.5473C108.363 59.5623 114.956 73.8847 114.956 73.8847C114.956 73.8847 107.961 35.639 104.551 28.4166C101.14 21.1941 94.3639 11.2261 94.3639 11.2261C94.3639 11.2261 111.108 24.1233 114.475 39.2852L117.867 54.4384C117.867 54.4384 114.728 37.2042 112.455 22.497C110.182 7.78977 109.744 1.22312 109.744 0.541099C109.744 -0.140924 115.629 7.78103 119.022 15.2483C121.535 21.1387 123.357 27.3005 124.452 33.6104C124.906 36.0937 123.997 25.4612 125.58 17.9939C127.162 10.5266 128.526 6.22462 128.754 4.87806C128.981 3.5315 131.692 17.9939 132.374 29.3172C133.056 40.6405 132.819 57.3763 132.819 57.3763C132.819 57.3763 140.514 41.7597 142.097 37.9124C143.679 34.0651 146.853 30.0429 147.081 29.0899C146.461 35.7006 145.409 42.2638 143.933 48.7374C141.896 57.114 140.995 60.734 140.995 60.734L141.222 66.6186C141.222 66.6186 155.213 40.387 160.459 32.2202C165.705 24.0534 174.449 17.0583 174.449 17.0583C174.449 17.0583 173.575 22.0423 167.454 39.2415C163.262 50.958 157.957 62.2455 151.61 72.9491C150.027 75.4412 147.763 79.9443 147.089 81.3258C146.416 82.7073 147.535 92.1857 147.535 92.1857C147.535 92.1857 159.777 84.9458 169.264 80.4164C178.751 75.8871 196.186 72.7305 196.186 72.7305C196.186 72.7305 175.376 81.0984 168.809 87.6651C162.243 94.2317 148.445 105.083 148.445 105.083L148.672 114.815C148.672 114.815 164.962 102.372 176.049 97.6156C187.136 92.859 195.058 91.9583 195.058 91.9583L165.871 112.358C158.404 117.56 149.8 124.354 149.8 124.354C149.8 124.354 167.909 115.532 182.389 115.077C182.389 115.077 157.031 130.912 154.557 134.532C152.082 138.152 148.217 142.227 147.763 142.909C147.308 143.591 159.532 138.834 166.545 137.024C171.39 135.833 176.301 134.925 181.252 134.305C174.085 136.169 167.286 139.231 161.141 143.364C150.508 150.359 146.372 151.81 145.271 153.131L144.169 154.451C144.169 154.451 167.48 146.074 173.137 144.719C177.005 143.915 180.98 143.762 184.898 144.264C184.898 144.264 168.897 146.695 161.508 153.882C154.12 161.07 144.405 170.146 133.877 169.552C123.35 168.957 117.474 168.957 115.437 168.73C113.399 168.502 107.034 170.067 107.034 170.067Z" stroke="#2B2B2B" stroke-linecap="round" stroke-linejoin="round"/>
<path d="M123.953 89.6237C123.953 89.6237 123.079 56.397 128.649 40.728C134.219 25.0589 136.938 20.2935 136.938 20.2935C136.938 20.2935 147.579 49.8828 147.037 66.4874C146.495 83.092 138.197 106.185 138.197 106.185L123.953 89.6237Z" fill="#285E67" stroke="#2B2B2B" stroke-linecap="round" stroke-linejoin="round"/>
<path d="M119.8 104.016C119.8 104.016 111.143 86.8694 112.586 67.0296C114.029 47.1897 116.197 38.3321 115.288 32.2027C114.379 26.0732 113.67 20.2935 113.67 20.2935C113.67 20.2935 124.854 44.654 132.435 63.4183C137.17 75.3928 139.085 88.297 138.031 101.131C137.847 102.215 132.435 110.871 132.435 110.871L128.649 120.612L119.8 104.016Z" fill="#285E67" stroke="#2B2B2B" stroke-linecap="round" stroke-linejoin="round"/>
<path d="M118.899 128.919C118.899 128.919 106.089 113.398 95.9815 100.23C89.3792 91.7532 82.1417 83.7908 74.3317 76.4117C74.3317 76.4117 89.4936 81.658 98.15 89.9385C106.806 98.2189 121.243 112.139 124.854 121.696C128.465 131.253 125.037 137.217 125.037 137.217L118.899 128.919Z" fill="#285E67" stroke="#2B2B2B" stroke-linecap="round" stroke-linejoin="round"/>
<path d="M136.221 123.323C136.221 123.323 148.462 103.116 157.154 81.9991C165.845 60.8826 172.849 51.6841 172.849 51.6841C172.849 51.6841 146.329 75.8696 141.275 84.9108C136.221 93.952 131.893 97.8954 129.908 107.461C127.923 117.027 130.45 128.936 130.634 129.837C130.817 130.737 136.221 123.323 136.221 123.323Z" fill="#285E67" stroke="#2B2B2B" stroke-linecap="round" stroke-linejoin="round"/>
<path d="M128.649 110.329C128.649 110.329 125.037 93.1912 115.472 80.5563C105.906 67.9214 89.8521 60.8913 89.8521 60.8913C89.8521 60.8913 97.0658 61.4335 101.936 76.7702C106.806 92.107 114.029 106.185 118.182 110.154C122.336 114.124 127.381 119.169 127.381 119.169L128.649 110.329Z" fill="#285E67" stroke="#2B2B2B" stroke-linecap="round" stroke-linejoin="round"/>
<path d="M118.899 128.919C115.361 126.168 112.037 123.151 108.957 119.895C106.086 116.807 103.013 113.912 99.7589 111.23C99.7589 111.23 105.53 110.355 109.141 111.23C112.752 112.104 118.165 115.742 118.165 115.742C116.393 113.079 115.224 110.062 114.737 106.902C114.195 102.215 114.195 100.23 114.195 100.23C118.097 101.935 121.839 103.983 125.378 106.351C130.249 109.778 134.586 118.592 134.586 118.592C134.586 118.592 133.318 115.707 140.173 107.767C147.028 99.8278 158.579 95.316 158.579 95.316C158.579 95.316 154.968 107.225 152.082 111.737C150.366 114.427 148.5 117.019 146.495 119.502C146.495 119.502 152.808 114.448 157.495 113.18C162.181 111.912 163.274 111.737 163.274 111.737C163.274 111.737 158.903 119.134 157.154 121.661C154.309 125.347 151.237 128.851 147.955 132.154C145.061 135.092 135.862 141.213 135.862 141.213L127.923 145.366L118.899 128.919Z" fill="#285E67" stroke="#2B2B2B" stroke-linecap="round" stroke-linejoin="round"/>
<path d="M114.755 144.43C114.755 144.43 110.243 141.37 110.059 133.605C109.875 125.841 110.243 120.079 110.243 120.079C110.243 120.079 117.238 122.422 121.61 125.325C124.164 127.002 126.319 129.22 127.923 131.822C127.923 131.822 128.649 127.45 134.044 124.066C139.439 120.682 150.998 117.945 150.998 117.945C150.998 117.945 149.555 126.785 147.938 132.198C146.32 137.61 141.983 142.122 139.456 145.007C136.929 147.893 127.215 154.757 127.215 154.757L114.755 144.43Z" fill="#285E67" stroke="#2B2B2B" stroke-linecap="round" stroke-linejoin="round"/>
<path d="M111.318 155.439C111.318 155.439 107.532 149.126 105.547 145.156C103.562 141.186 103.204 140.286 103.204 140.286C106.424 140.627 109.618 141.17 112.77 141.912C115.355 142.773 117.884 143.795 120.342 144.973C120.342 144.973 120.709 141.186 125.037 137.217C127.572 134.88 130.355 132.828 133.335 131.096C133.335 131.096 138.206 136.692 138.582 139.945C138.958 143.198 139.299 146.066 139.299 146.066L145.979 142.096C146.474 145.777 146.227 149.52 145.253 153.104C143.627 158.517 142.009 160.86 141.467 161.402C140.799 161.912 140.07 162.337 139.299 162.67C139.299 162.67 138.757 164.655 132.444 163.387C126.13 162.119 120.534 160.318 119.992 159.96C119.45 159.601 118.007 158.7 117.282 158.333C116.556 157.966 111.318 155.439 111.318 155.439Z" fill="#285E67" stroke="#2B2B2B" stroke-linecap="round" stroke-linejoin="round"/>
<path d="M101.394 166.631C101.394 166.631 99.9513 163.92 93.2798 161.577C88.5815 160.039 83.7477 158.949 78.8436 158.324C78.8436 158.324 85.1567 155.439 91.2949 155.806C97.4331 156.173 106.273 160.677 107.532 162.119C108.791 163.562 107.716 158.692 100.135 152.011C92.554 145.331 81.187 137.575 77.943 135.966C76.2353 135.094 74.4843 134.309 72.6967 133.614C72.6967 133.614 84.7894 133.439 93.6295 138.485C99.1619 141.69 104.361 145.44 109.15 149.677C107.22 143.627 103.881 138.122 99.4092 133.614C95.2313 129.372 90.6348 125.564 85.6901 122.247C85.6901 122.247 97.2407 126.759 104.997 132.171C112.752 137.584 127.189 153.288 127.189 153.288C127.189 153.288 129.715 141.379 139.098 133.798C144.913 129.169 151.619 125.788 158.798 123.865C158.441 128.963 156.896 133.907 154.286 138.301C152.1 142.052 149.688 145.667 147.063 149.126C147.063 149.126 160.957 140.828 167.279 139.202C173.601 137.575 180.255 135.966 180.255 135.966C180.255 135.966 159.139 148.409 155.353 152.921C151.566 157.433 150.482 158.875 150.482 158.875C150.482 158.875 159.864 155.089 164.376 154.005C168.888 152.921 177.002 152.746 177.002 152.746C177.002 152.746 158.054 159.741 154.452 162.128C150.849 164.515 144.16 168.083 144.16 168.083C144.16 168.083 118.724 167.357 113.312 167.208C107.9 167.06 101.394 166.631 101.394 166.631Z" fill="#285E67" stroke="#2B2B2B" stroke-linecap="round" stroke-linejoin="round"/>
<path d="M113.487 172.402C113.181 172.165 112.889 171.911 112.612 171.641C110.62 169.692 109.023 167.376 107.908 164.821C105.565 159.575 98.5261 151.469 98.5261 151.469C101.753 151.624 104.955 152.108 108.083 152.912C111.133 153.849 114.047 155.183 116.748 156.882C117.617 154.565 118.9 152.426 120.534 150.569L123.061 147.867C123.061 147.867 129.733 154.538 131.543 157.065C132.607 158.536 133.401 160.186 133.886 161.936C133.886 161.936 134.761 158.692 143.627 157.424C152.493 156.156 161.491 153.821 161.491 153.821C161.491 153.821 152.292 165.363 149.249 167.89C146.533 169.903 143.635 171.66 140.593 173.136L113.487 172.402Z" fill="#285E67" stroke="#2B2B2B" stroke-linecap="round" stroke-linejoin="round"/>
<path d="M111.502 176.372C111.502 176.372 103.379 175.83 99.2605 172.218C95.1421 168.607 92.2654 166.447 92.2654 166.447C92.2654 166.447 97.8615 165.188 101.464 166.631C105.066 168.074 111.502 170.942 111.502 170.942C111.502 170.942 110.628 170.583 109.876 166.43C109.489 164.466 109.249 162.475 109.159 160.475C109.159 160.475 115.83 160.834 119.8 163.544C123.77 166.255 125.046 168.056 125.046 168.056C125.046 168.056 122.878 167.514 129.418 165.713C134.579 164.44 139.824 163.534 145.113 163.002C145.113 163.002 145.655 166.246 146.198 170.4C146.74 174.553 145.113 176.896 145.113 176.896L111.502 176.372Z" fill="#285E67" stroke="#2B2B2B" stroke-linecap="round" stroke-linejoin="round"/>
<path d="M101.857 175.655C92.7638 179.152 85.62 182.79 78.896 190.266C68.1585 202.201 64.4336 219.698 63.5855 235.358C62.2302 260.47 64.967 290.794 74.6465 314.228C79.5693 326.119 90.333 337.967 103.842 339.585C110.4 340.381 121.732 340.381 127.101 340.774C132.47 341.168 133.056 341.176 141.004 340.582C182.563 337.46 192.837 287.087 193.248 253.388C193.327 247.468 193.178 241.496 192.89 235.585C191.806 213.42 184.767 190.205 164.455 178.418C161.171 176.446 157.711 174.783 154.12 173.451L155.711 169.674C155.711 169.674 152.537 169.875 151.339 170.863C150.141 171.851 146.372 172.857 146.372 172.857L142.001 167.488L139.421 170.671L133.851 169.473L131.665 174.046L124.312 172.061L121.138 175.043L115.568 172.691C114.852 173.629 113.979 174.436 112.988 175.078C111.598 175.865 105.434 174.282 105.434 174.282L101.857 175.655Z" fill="#FCE2D7" stroke="#2B2B2B" stroke-linecap="round" stroke-linejoin="round"/>
<path d="M110.112 182.02C107.191 186.943 101.989 192.102 96.2263 193.562C90.4641 195.022 89.7646 186.445 95.1071 181.898C100.45 177.351 108.992 177.456 112.744 175.209C116.495 172.962 113.032 177.062 110.112 182.02Z" fill="#FCE2D7" stroke="#2B2B2B" stroke-linecap="round" stroke-linejoin="round"/>
<path d="M109.709 182.659C108.293 180.621 106.282 181.496 105.652 181.679C104.822 181.915 106.745 178.864 106.745 178.864C106.745 178.864 103.012 182.991 99.0682 181.688C97.1707 181.059 96.3313 181.05 95.8154 181.251L95.1072 181.898C89.7647 186.445 90.4555 195.014 96.2264 193.562C101.744 192.172 106.702 187.328 109.709 182.659Z" fill="#FCE2D7" stroke="#2B2B2B" stroke-linecap="round" stroke-linejoin="round"/>
<path d="M124.469 181.959C124.163 186.943 119.039 191.402 114.195 193.134C109.351 194.865 107.2 186.943 110.112 182.02C113.023 177.097 120.036 176.031 122.414 173.836C124.793 171.641 124.766 176.966 124.469 181.959Z" fill="#FCE2D7" stroke="#2B2B2B" stroke-linecap="round" stroke-linejoin="round"/>
<path d="M124.399 182.597C123.653 181.992 122.788 181.551 121.86 181.303C120.932 181.054 119.962 181.004 119.013 181.155C117.964 181.251 117.693 177.937 117.693 177.937C117.693 177.937 116.355 183.559 112.997 181.854C111.38 181.032 110.689 181.032 110.374 181.268C110.314 181.528 110.226 181.78 110.112 182.02C107.191 186.943 109.36 194.856 114.195 193.134C118.829 191.481 123.822 187.363 124.399 182.597Z" fill="#FCE2D7" stroke="#2B2B2B" stroke-linecap="round" stroke-linejoin="round"/>
<path d="M137.34 179.616C139.649 184.74 135.95 190.152 132.225 192.478C128.5 194.804 124.163 186.943 124.469 181.985C124.775 177.028 130.826 175.559 132.234 172.656C133.641 169.753 135.032 174.483 137.34 179.616Z" fill="#FCE2D7" stroke="#2B2B2B" stroke-linecap="round" stroke-linejoin="round"/>
<path d="M137.602 180.28C134.673 178.532 133.073 179.878 132.356 180.114C131.377 180.429 128.859 177.045 128.859 177.045C128.859 177.045 130.529 182.825 126.76 181.417C124.95 180.735 124.373 180.831 124.25 181.128C124.36 181.409 124.431 181.703 124.46 182.003C124.154 186.987 128.5 194.848 132.216 192.496C135.792 190.257 139.412 185.177 137.602 180.28Z" fill="#FCE2D7" stroke="#2B2B2B" stroke-linecap="round" stroke-linejoin="round"/>
<path d="M150.054 180.56C154.985 185.395 154.146 186.934 149.704 189.182C145.262 191.429 139.683 184.81 137.375 179.659C135.067 174.509 139.019 171.327 141.074 168.826C143.128 166.325 145.078 175.681 150.054 180.56Z" fill="#FCE2D7" stroke="#2B2B2B" stroke-linecap="round" stroke-linejoin="round"/>
<path d="M150.622 181.137C147.605 178.663 146.801 178.427 145.682 177.456C144.204 176.188 138.958 173.399 138.958 173.399C138.958 173.399 143.33 180.079 139.089 178.811C137.034 178.208 136.588 178.357 136.649 178.698C136.91 178.98 137.141 179.287 137.34 179.616C139.649 184.74 145.21 191.394 149.669 189.138C153.919 186.987 154.933 185.658 150.622 181.137Z" fill="#FCE2D7" stroke="#2B2B2B" stroke-linecap="round" stroke-linejoin="round"/>
<path d="M164.254 178.636C171.511 183.008 171.87 189.059 166.072 190.808C160.275 192.557 154.95 185.352 150.054 180.56C145.157 175.768 145.428 173.827 149.372 172.262C153.315 170.697 156.996 174.238 164.254 178.636Z" fill="#FCE2D7" stroke="#2B2B2B" stroke-linecap="round" stroke-linejoin="round"/>
<path d="M165.163 179.205C161.736 178.208 159.917 179.878 158.492 179.957C156.655 180.07 148.279 176.407 148.279 176.407C148.279 176.407 154.041 183.332 150.377 180.7C148.628 179.432 148.506 179.327 148.847 179.589C149.188 179.852 149.783 180.289 150.019 180.516C154.95 185.352 160.275 192.557 166.072 190.808C171.616 189.138 171.642 183.481 165.163 179.205Z" fill="#FCE2D7" stroke="#2B2B2B" stroke-linecap="round" stroke-linejoin="round"/>
<path d="M95.6317 194.795C92.8424 201.108 87.0977 208.095 79.578 206.599C73.842 205.454 71.9621 199.342 76.745 193.073C80.7846 187.774 88.7066 182.466 94.1278 182.746C97.6953 182.938 98.5959 188.08 95.6317 194.795Z" fill="#FCE2D7" stroke="#2B2B2B" stroke-linecap="round" stroke-linejoin="round"/>
<path d="M95.1945 195.687C92.8774 194.576 89.511 194.716 88.2956 193.886C86.6867 192.801 89.0476 187.415 89.0476 187.415C89.0476 187.415 86.0135 191.726 81.1781 191.673C78.8435 191.673 77.9166 191.901 77.4532 192.216C77.2171 192.504 76.981 192.784 76.7624 193.09C71.9883 199.403 73.7021 205.235 79.5955 206.617C85.2003 207.911 91.9068 202.254 95.1945 195.687Z" fill="#FCE2D7" stroke="#2B2B2B" stroke-linecap="round" stroke-linejoin="round"/>
<path d="M113.959 194.393C112.665 201.327 107.217 208.978 101.289 207.885C95.3608 206.792 92.4666 201.589 95.6319 194.769C98.7971 187.949 105.399 181.653 109.622 182.921C113.845 184.189 115.244 187.459 113.959 194.393Z" fill="#FCE2D7" stroke="#2B2B2B" stroke-linecap="round" stroke-linejoin="round"/>
<path d="M113.758 195.302C111.432 194.323 108.389 195.442 107.226 194.603C105.687 193.492 106.483 187.887 106.483 187.887C106.483 187.887 103.23 191.647 99.6628 192.347C98.3768 192.564 97.1604 193.083 96.1127 193.859C95.9466 194.166 95.7805 194.48 95.6318 194.795C92.4665 201.589 95.3695 206.792 101.289 207.911C106.964 208.925 112.245 202.018 113.758 195.302Z" fill="#FCE2D7" stroke="#2B2B2B" stroke-linecap="round" stroke-linejoin="round"/>
<path d="M132.33 193.746C132.889 200.741 129.217 208.523 123.114 207.823C117.011 207.124 112.665 201.327 113.959 194.393C115.253 187.459 120.08 182.012 124.408 182.895C128.736 183.778 131.779 186.786 132.33 193.746Z" fill="#FCE2D7" stroke="#2B2B2B" stroke-linecap="round" stroke-linejoin="round"/>
<path d="M132.382 194.664C130.17 193.999 127.46 195.101 126.157 194.349C124.408 193.361 123.464 187.905 123.464 187.905C122.045 190.023 119.844 191.492 117.343 191.988C115.358 192.373 114.51 192.941 114.134 193.431C114.055 193.746 113.976 194.069 113.924 194.393C112.63 201.327 116.967 207.133 123.079 207.823C128.946 208.54 132.636 201.449 132.382 194.664Z" fill="#FCE2D7" stroke="#2B2B2B" stroke-linecap="round" stroke-linejoin="round"/>
<path d="M150.141 190.406C152.668 197.401 149.774 206.145 143.408 205.751C137.043 205.358 132.916 200.715 132.33 193.746C131.744 186.777 133.3 179.896 137.751 180.569C142.202 181.242 147.614 183.428 150.141 190.406Z" fill="#FCE2D7" stroke="#2B2B2B" stroke-linecap="round" stroke-linejoin="round"/>
<path d="M150.43 191.333C147.334 190.633 145.183 192.688 143.671 192.015C141.66 191.14 138.914 185.701 138.914 185.701C138.914 185.701 138.136 189.575 134.691 190.948C133.038 191.604 132.479 192.268 132.277 192.793C132.277 193.116 132.277 193.44 132.33 193.763C132.89 200.758 137.052 205.358 143.408 205.769C149.494 206.145 152.441 198.127 150.43 191.333Z" fill="#FCE2D7" stroke="#2B2B2B" stroke-linecap="round" stroke-linejoin="round"/>
<path d="M166.886 191.971C171.258 198.336 168.783 206.564 163.589 205.305C158.395 204.046 152.668 197.392 150.141 190.441C147.614 183.489 147.588 179.31 150.911 181.461C154.233 183.612 162.54 185.597 166.886 191.971Z" fill="#FCE2D7" stroke="#2B2B2B" stroke-linecap="round" stroke-linejoin="round"/>
<path d="M167.393 192.801C163.135 192.023 161.736 193.737 160.345 192.801C158.509 191.569 154.408 186.104 154.408 186.104C154.408 186.104 156.76 191.193 152.581 188.858C150.57 187.739 149.958 188.919 149.818 189.444C149.923 189.759 150.019 190.082 150.141 190.406C152.668 197.401 158.387 204.037 163.589 205.27C168.556 206.512 170.987 199.001 167.393 192.801Z" fill="#FCE2D7" stroke="#2B2B2B" stroke-linecap="round" stroke-linejoin="round"/>
<path d="M101.63 209.922C100.598 217.005 94.635 224.586 88.6979 225.101C82.2974 225.67 77.8555 215.247 79.6742 208.602C81.423 202.114 89.6597 197.401 95.5531 196.255C101.001 195.197 102.837 201.816 101.63 209.922Z" fill="#FCE2D7" stroke="#2B2B2B" stroke-linecap="round" stroke-linejoin="round"/>
<path d="M101.429 210.971C98.5436 208.217 95.5182 209.354 94.2766 209.039C92.6328 208.637 92.5278 202.918 92.5278 202.918C92.5278 202.918 90.1757 209.913 84.466 208.033C81.7204 207.159 80.5837 207.159 80.094 207.517C79.9629 207.867 79.8317 208.226 79.7268 208.593C77.7857 215.3 81.8078 225.206 88.7505 225.093C94.4777 224.979 99.8727 218.64 101.429 210.971Z" fill="#FCE2D7" stroke="#2B2B2B" stroke-linecap="round" stroke-linejoin="round"/>
<path d="M123.761 209.826C123.826 213.379 122.661 216.846 120.464 219.639C118.267 222.432 115.172 224.38 111.703 225.154C103.746 227.06 100.686 215.912 101.63 209.887C102.915 201.712 109.141 197.514 114.212 195.827C119.284 194.139 123.77 201.703 123.761 209.826Z" fill="#FCE2D7" stroke="#2B2B2B" stroke-linecap="round" stroke-linejoin="round"/>
<path d="M123.708 210.875C120.456 208.322 116.923 209.126 115.498 208.855C113.627 208.497 112.691 202.673 112.691 202.673C112.691 202.673 111.161 210.901 105.871 209.126C103.326 208.252 102.295 208.418 101.858 208.803C101.77 209.17 101.691 209.537 101.63 209.922C100.686 215.947 103.466 226.903 111.703 225.189C115.005 224.465 117.973 222.668 120.145 220.078C122.317 217.489 123.57 214.252 123.708 210.875Z" fill="#FCE2D7" stroke="#2B2B2B" stroke-linecap="round" stroke-linejoin="round"/>
<path d="M144.379 207.736C145.498 215.99 139.718 222.793 134.577 224.629C129.436 226.465 123.682 218.01 123.761 209.826C123.84 201.642 128.955 197.444 132.898 195.162C136.842 192.88 143.26 199.482 144.379 207.736Z" fill="#FCE2D7" stroke="#2B2B2B" stroke-linecap="round" stroke-linejoin="round"/>
<path d="M144.484 208.794C140.768 206.389 137.419 208.051 136.177 207.92C134.533 207.753 132.924 202.061 132.924 202.061C132.924 202.061 132.828 210.263 127.678 208.794C125.212 208.086 124.181 208.296 123.796 208.707C123.796 209.074 123.743 209.441 123.743 209.826C123.665 218.01 129.418 226.439 134.56 224.629C139.491 222.872 145.07 216.585 144.484 208.794Z" fill="#FCE2D7" stroke="#2B2B2B" stroke-linecap="round" stroke-linejoin="round"/>
<path d="M164.717 207.29C167.122 215.028 163.406 219.374 157.556 221.333C149.879 223.912 145.21 213.839 144.379 207.736C143.26 199.482 147.649 192.373 151.234 191.831C156.034 191.105 162.916 201.458 164.717 207.29Z" fill="#FCE2D7" stroke="#2B2B2B" stroke-linecap="round" stroke-linejoin="round"/>
<path d="M164.98 208.296C161.569 205.568 159.147 206.389 157.652 205.393C155.685 204.09 152.721 198.739 152.721 198.739C152.721 198.739 154.015 207.552 148.349 206.451C145.621 205.917 144.598 206.171 144.274 206.608C144.274 206.975 144.335 207.351 144.388 207.736C145.262 213.857 149.888 223.912 157.565 221.333C163.17 219.453 166.755 215.684 164.98 208.296Z" fill="#FCE2D7" stroke="#2B2B2B" stroke-linecap="round" stroke-linejoin="round"/>
<path d="M185.414 203.093C188.352 208.995 185.143 218.351 178.9 220.581C171.03 223.335 166.492 213.402 164.717 207.316C162.435 199.447 162.758 195.075 168.538 193.326C175.638 191.131 182.511 197.252 185.414 203.093Z" fill="#FCE2D7" stroke="#2B2B2B" stroke-linecap="round" stroke-linejoin="round"/>
<path d="M185.799 204.055C182.747 202.638 179.25 204.929 177.649 204.929C175.525 204.886 171.284 199.604 171.284 199.604C171.284 199.604 171.468 206.599 167.594 206.494C165.732 206.433 164.612 205.856 164.429 206.215C164.525 206.564 164.612 206.923 164.717 207.29C166.466 213.411 170.768 223.16 178.9 220.555C185.187 218.526 188.457 211.111 185.799 204.055Z" fill="#FCE2D7" stroke="#2B2B2B" stroke-linecap="round" stroke-linejoin="round"/>
<path d="M88.2695 229.132C87.3951 235.699 82.6122 244.696 75.0575 242.196C68.9368 240.176 64.3113 232.35 65.3168 225.469C66.4798 217.599 72.4344 210.997 78.6688 212.353C85.5152 213.874 89.074 223.012 88.2695 229.132Z" fill="#FCE2D7" stroke="#2B2B2B" stroke-linecap="round" stroke-linejoin="round"/>
<path d="M88.1295 230.234C84.7019 228.398 81.1344 228.922 79.4818 227.882C77.2521 226.509 76.4652 219.505 76.4652 219.505C76.4652 219.505 75.5296 225.539 69.8636 224.306C67.1355 223.711 65.9113 223.991 65.4916 224.376C65.4217 224.743 65.3517 225.101 65.2993 225.469C64.2937 232.35 68.8668 240.071 75.04 242.196C80.8546 244.189 86.9579 238.313 88.1295 230.234Z" fill="#FCE2D7" stroke="#2B2B2B" stroke-linecap="round" stroke-linejoin="round"/>
<path d="M111.581 229.307C111.379 236.302 107.112 246.174 98.9632 244.915C92.0643 243.84 87.4737 236.014 88.2782 229.132C88.9864 223.082 93.1398 212.458 101.079 213.831C107.209 214.897 111.817 220.59 111.581 229.307Z" fill="#FCE2D7" stroke="#2B2B2B" stroke-linecap="round" stroke-linejoin="round"/>
<path d="M111.493 230.4C108.083 228.748 104.498 230.47 102.872 229.526C100.721 228.31 99.5229 221.237 99.5229 221.237C99.5229 221.237 97.4856 227.165 92.5978 226.841C90.2457 226.675 88.8991 227.357 88.4357 227.891C88.3745 228.284 88.3133 228.678 88.2695 229.071C87.5788 236.014 92.0469 243.77 98.9546 244.854C106.693 246.139 110.986 237.168 111.493 230.4Z" fill="#FCE2D7" stroke="#2B2B2B" stroke-linecap="round" stroke-linejoin="round"/>
<path d="M134.708 228.774C134.944 235.673 132.085 245.833 123.787 245.046C116.556 244.364 111.213 236.661 111.546 229.307C111.878 222.312 115.454 213.079 123.7 213.734C129.838 214.224 134.42 219.995 134.708 228.774Z" fill="#FCE2D7" stroke="#2B2B2B" stroke-linecap="round" stroke-linejoin="round"/>
<path d="M134.708 229.919C131.866 228.503 128.491 230.217 126.909 229.377C124.828 228.258 123 221.263 123 221.263C123 221.263 121.986 228.468 115.926 227.025C113.015 226.334 112.061 227.532 111.651 228.092C111.651 228.494 111.589 228.905 111.572 229.307C111.266 236.608 116.442 244.233 123.813 245.046C129.943 245.737 134.603 238.313 134.708 229.919Z" fill="#FCE2D7" stroke="#2B2B2B" stroke-linecap="round" stroke-linejoin="round"/>
<path d="M158.028 225.512C158.728 232.446 155.877 243.621 147.116 243.455C139.036 243.297 134.778 236.189 134.708 228.774C134.656 222.548 136.195 211.111 144.886 211.68C151.357 212.099 157.136 216.664 158.028 225.512Z" fill="#FCE2D7" stroke="#2B2B2B" stroke-linecap="round" stroke-linejoin="round"/>
<path d="M158.098 226.667C154.671 225.416 151.523 228.004 149.748 227.279C147.413 226.317 144.947 219.313 144.947 219.313C144.947 219.313 142.997 225.215 138.145 225.95C135.81 226.299 135.014 226.946 134.708 227.55V228.774C134.787 236.171 139.019 243.271 147.116 243.455C155.449 243.638 158.422 233.364 158.098 226.667Z" fill="#FCE2D7" stroke="#2B2B2B" stroke-linecap="round" stroke-linejoin="round"/>
<path d="M179.617 224.446C180.587 230.566 177.081 241.89 170.208 241.689C163.336 241.487 158.728 232.228 158.028 225.512C157.093 216.664 160.354 209.983 165.758 211.059C171.161 212.134 178.323 216.226 179.617 224.446Z" fill="#FCE2D7" stroke="#2B2B2B" stroke-linecap="round" stroke-linejoin="round"/>
<path d="M179.783 225.53C175.927 224.481 173.076 227.06 171.555 226.256C169.535 225.18 166.833 218.307 166.833 218.307C166.833 218.307 167.096 225.407 161.806 223.711C159.252 222.889 158.308 223.65 157.976 224.271C157.976 224.682 157.976 225.101 158.063 225.512C158.763 232.228 163.038 241.059 170.243 241.689C175.621 242.161 180.552 233.478 179.783 225.53Z" fill="#FCE2D7" stroke="#2B2B2B" stroke-linecap="round" stroke-linejoin="round"/>
<path d="M99.2605 247.014C99.1643 254.096 93.8481 262.394 87.3776 262.14C80.4787 261.869 75.2061 251.595 75.3548 244.242C75.5209 236.049 81.6853 231.957 88.4706 231.126C96.2876 230.12 99.3392 241.111 99.2605 247.014Z" fill="#FCE2D7" stroke="#2B2B2B" stroke-linecap="round" stroke-linejoin="round"/>
<path d="M99.1905 248.133C95.693 245.335 92.3878 246.445 90.8664 245.877C88.864 245.125 87.1939 238.751 87.1939 238.751C87.1939 238.751 86.1272 246.113 79.9628 243.875C76.9986 242.79 75.8619 242.773 75.4422 243.123C75.4422 243.49 75.3635 243.866 75.3547 244.242C75.2061 251.595 80.0939 261.485 87.3776 262.14C93.2185 262.665 98.5697 256.282 99.1905 248.133Z" fill="#FCE2D7" stroke="#2B2B2B" stroke-linecap="round" stroke-linejoin="round"/>
<path d="M124.154 247.162C124.207 254.909 119.468 262.245 111.616 263.181C103.3 264.178 99.1469 253.974 99.2606 247.014C99.3917 239.144 105.294 232.604 111.878 231.275C119.074 229.858 124.111 240.456 124.154 247.162Z" fill="#FCE2D7" stroke="#2B2B2B" stroke-linecap="round" stroke-linejoin="round"/>
<path d="M124.111 248.308C120.613 245.684 116.687 246.69 114.999 246.244C112.779 245.658 110.995 239.179 110.995 239.179C110.995 239.179 109.849 247.626 103.781 245.982C100.861 245.195 99.7589 245.387 99.3392 245.824C99.3392 246.209 99.2692 246.611 99.2605 247.014C99.0944 254.009 103.16 263.872 111.616 263.181C118.48 262.621 124.355 254.988 124.111 248.308Z" fill="#FCE2D7" stroke="#2B2B2B" stroke-linecap="round" stroke-linejoin="round"/>
<path d="M147.562 245.597C147.798 253.467 141.773 261.528 135.443 263.181C128.815 264.93 124.425 253.073 124.154 247.162C123.857 240.666 129.322 232.63 135.058 230.759C141.957 228.512 147.378 239.712 147.562 245.597Z" fill="#FCE2D7" stroke="#2B2B2B" stroke-linecap="round" stroke-linejoin="round"/>
<path d="M147.544 246.769C143.697 244.294 139.482 246.043 138.066 245.711C136.186 245.282 134.664 238.794 134.664 238.794C134.664 238.794 133.79 247.337 128.386 245.903C125.763 245.212 124.609 245.483 124.198 245.903C124.198 246.305 124.154 246.707 124.154 247.118C124.154 253.239 128.771 264.851 135.443 263.137C141.423 261.651 147.544 254.315 147.544 246.769Z" fill="#FCE2D7" stroke="#2B2B2B" stroke-linecap="round" stroke-linejoin="round"/>
<path d="M170.645 243.787C171.048 250.782 167.436 258.844 160.048 260.331C151.986 261.948 147.728 252.076 147.562 245.597C147.369 238.156 153.035 228.512 158.561 227.489C164.28 226.431 170.261 237.107 170.645 243.787Z" fill="#FCE2D7" stroke="#2B2B2B" stroke-linecap="round" stroke-linejoin="round"/>
<path d="M170.663 244.932C167.393 242.484 164.219 243.962 162.654 243.122C160.581 242.012 158.518 235.646 158.518 235.646C158.518 235.646 158.369 244.845 152.178 243.944C149.197 243.516 147.999 243.848 147.579 244.347C147.579 244.766 147.579 245.177 147.579 245.597C147.719 252.102 151.951 262.525 160.065 260.33C166.02 258.713 170.672 253.265 170.663 244.932Z" fill="#FCE2D7" stroke="#2B2B2B" stroke-linecap="round" stroke-linejoin="round"/>
<path d="M192.741 237.553C193.143 245.475 189.244 254.114 182.249 257.253C176.416 259.876 171.17 252.566 170.637 243.787C170.226 237.028 173.26 228.616 180.255 226.299C186.822 224.113 192.322 229.089 192.741 237.553Z" fill="#FCE2D7" stroke="#2B2B2B" stroke-linecap="round" stroke-linejoin="round"/>
<path d="M192.759 238.663C190.223 237.343 186.297 240.097 184.758 240.036C182.721 239.948 180.482 233.976 180.482 233.976C180.482 233.976 179.031 241.785 174.362 242.073C172.097 242.213 170.987 242.073 170.646 242.572C170.646 242.974 170.646 243.376 170.646 243.787C171.091 252.662 176.408 259.867 182.257 257.253C188.885 254.28 192.899 246.253 192.759 238.663Z" fill="#FCE2D7" stroke="#2B2B2B" stroke-linecap="round" stroke-linejoin="round"/>
<path d="M87.0278 265.096C87.2027 273.691 81.5192 280.433 75.8706 277.941C69.3477 275.055 64.7047 266.416 64.3287 258.984C63.9178 250.747 68.5433 244.994 74.9263 246.979C82.6646 249.392 86.8617 257.288 87.0278 265.096Z" fill="#FCE2D7" stroke="#2B2B2B" stroke-linecap="round" stroke-linejoin="round"/>
<path d="M86.9929 266.25C83.3642 263.88 79.9978 264.326 78.2491 263.163C75.9844 261.625 74.1394 254.306 74.1394 254.306C74.1394 254.306 73.9646 260.706 68.3772 258.52C65.6841 257.471 64.6086 257.55 64.2938 257.9C64.2938 258.267 64.2938 258.634 64.2938 259.019C64.6698 266.451 69.3128 275.09 75.8357 277.976C81.2744 280.328 86.6607 274.382 86.9929 266.25Z" fill="#FCE2D7" stroke="#2B2B2B" stroke-linecap="round" stroke-linejoin="round"/>
<path d="M111.257 266.25C111.257 273.245 106.885 283.143 99.0768 282.138C91.8894 281.202 87.0977 272.292 87.0278 265.131C86.9578 258.73 90.9538 248.561 98.832 249.978C106.273 251.289 111.248 258.634 111.257 266.25Z" fill="#FCE2D7" stroke="#2B2B2B" stroke-linecap="round" stroke-linejoin="round"/>
<path d="M111.222 267.343C107.497 265.411 103.799 267.046 102.076 266.163C99.8027 264.991 98.0102 257.742 98.0102 257.742C98.0102 257.742 96.6549 264.379 91.3037 263.435C88.733 262.971 87.4739 263.435 87.0629 263.907C87.0629 264.3 87.0192 264.694 87.0629 265.096C87.1678 272.292 91.8196 281.045 99.112 282.103C106.002 283.1 111.371 273.551 111.222 267.343Z" fill="#FCE2D7" stroke="#2B2B2B" stroke-linecap="round" stroke-linejoin="round"/>
<path d="M135.189 266.25C135.128 273.07 131.866 282.995 124.067 282.514C116.792 282.059 111.301 273.682 111.292 266.241C111.283 258.8 115.83 249.383 123.831 250.196C131.027 250.905 135.189 259.028 135.189 266.25Z" fill="#FCE2D7" stroke="#2B2B2B" stroke-linecap="round" stroke-linejoin="round"/>
<path d="M135.119 267.361C132.207 265.612 128.64 267.221 127.075 266.408C125.011 265.332 123.088 258.127 123.088 258.127C123.088 258.127 122.213 265.568 115.839 264.248C112.787 263.601 111.712 264.501 111.292 265.035C111.292 265.428 111.292 265.83 111.292 266.241C111.336 273.665 116.538 281.771 124.067 282.514C130.013 283.073 134.778 275.65 135.119 267.361Z" fill="#FCE2D7" stroke="#2B2B2B" stroke-linecap="round" stroke-linejoin="round"/>
<path d="M159.751 263.391C159.698 270.675 155.973 281.062 147.465 281.421C138.958 281.779 135.075 273.63 135.189 266.25C135.259 259.01 138.162 248.194 147.273 248.762C154.994 249.165 159.794 255.757 159.751 263.391Z" fill="#FCE2D7" stroke="#2B2B2B" stroke-linecap="round" stroke-linejoin="round"/>
<path d="M159.716 264.501C156.323 263.172 152.817 265.586 151.042 264.93C148.698 264.055 146.609 256.877 146.609 256.877C146.609 256.877 144.055 263.574 138.853 263.811C136.352 263.915 135.521 264.458 135.189 265.008C135.189 265.402 135.189 265.813 135.189 266.206C135.11 273.612 139.063 281.727 147.5 281.403C155.588 281.115 159.366 271.496 159.716 264.501Z" fill="#FCE2D7" stroke="#2B2B2B" stroke-linecap="round" stroke-linejoin="round"/>
<path d="M181.925 260.129C181.82 266.888 177.754 276.996 170.716 278.325C165.224 279.357 159.891 272.003 159.751 263.4C159.637 256.754 162.662 246.944 170.462 246.786C176.224 246.725 182.048 252.26 181.925 260.129Z" fill="#FCE2D7" stroke="#2B2B2B" stroke-linecap="round" stroke-linejoin="round"/>
<path d="M181.881 261.161C178.515 260.287 175.35 262.962 173.872 262.412C171.922 261.695 170.103 254.796 170.103 254.796C170.103 254.796 169.351 262.333 163.869 261.38C161.246 260.925 160.153 261.607 159.777 262.193C159.777 262.595 159.777 262.997 159.777 263.391C159.873 272.039 165.189 279.313 170.742 278.317C177.492 277.101 181.339 267.649 181.881 261.161Z" fill="#FCE2D7" stroke="#2B2B2B" stroke-linecap="round" stroke-linejoin="round"/>
<path d="M99.5229 284.735C99.8202 293.697 94.7837 300.753 89.1876 299.521C81.9127 297.912 77.1648 288.031 76.4215 280.564C75.5471 271.995 80.7935 267.448 87.4301 267.614C95.387 267.833 99.2868 277.897 99.5229 284.735Z" fill="#FCE2D7" stroke="#2B2B2B" stroke-linecap="round" stroke-linejoin="round"/>
<path d="M99.5228 285.88C96.0252 283.126 92.7288 284.271 91.1549 283.493C89.0651 282.461 86.9053 275.422 86.9053 275.422C86.9053 275.422 86.3457 283.021 80.5223 280.38C77.7155 279.112 76.7012 279.042 76.3602 279.383C76.3602 279.768 76.3602 280.162 76.4214 280.564C77.1647 288.031 81.9126 297.912 89.1875 299.52C94.5475 300.701 99.4091 294.283 99.5228 285.88Z" fill="#FCE2D7" stroke="#2B2B2B" stroke-linecap="round" stroke-linejoin="round"/>
<path d="M124.408 285.119C124.478 292.464 120.22 300.858 112.385 301.217C104.271 301.619 99.8638 291.835 99.5228 284.735C99.1468 276.953 104.358 269.503 111.668 268.707C119.503 267.85 124.338 277.941 124.408 285.119Z" fill="#FCE2D7" stroke="#2B2B2B" stroke-linecap="round" stroke-linejoin="round"/>
<path d="M124.373 286.282C120.963 283.659 117.116 284.971 115.376 284.394C113.085 283.624 111.004 276.708 111.004 276.708C111.004 276.708 109.981 285.014 103.886 283.519C100.948 282.802 99.8901 283.038 99.5142 283.519C99.5142 283.922 99.5142 284.332 99.5142 284.752C99.759 291.957 104.026 301.427 112.376 301.234C119.354 301.051 124.697 292.744 124.373 286.282Z" fill="#FCE2D7" stroke="#2B2B2B" stroke-linecap="round" stroke-linejoin="round"/>
<path d="M147.807 284.053C147.605 291.59 141.284 300.552 134.971 301.488C128.657 302.423 124.478 291.301 124.408 285.119C124.285 277.346 128.867 270.255 135.46 268.69C142.053 267.124 147.973 277.617 147.807 284.053Z" fill="#FCE2D7" stroke="#2B2B2B" stroke-linecap="round" stroke-linejoin="round"/>
<path d="M147.728 285.233C144.029 282.881 139.535 284.726 138.11 284.254C136.23 283.633 134.848 276.751 134.848 276.751C134.848 276.751 133.519 285.058 128.43 283.747C125.991 283.108 124.828 283.414 124.443 283.895C124.443 284.297 124.399 284.717 124.443 285.137C124.495 291.345 128.561 302.423 135.005 301.505C140.943 300.64 147.378 292.482 147.728 285.233Z" fill="#FCE2D7" stroke="#2B2B2B" stroke-linecap="round" stroke-linejoin="round"/>
<path d="M170.925 280.817C170.436 288.145 166.475 296.924 158.876 298.769C151.007 300.692 147.649 290.095 147.807 284.053C147.99 276.306 153.586 267.142 160.118 265.804C166.65 264.466 171.354 274.329 170.925 280.817Z" fill="#FCE2D7" stroke="#2B2B2B" stroke-linecap="round" stroke-linejoin="round"/>
<path d="M170.82 281.989C167.847 280.083 164.499 282.042 162.951 281.412C160.949 280.59 159.366 273.962 159.366 273.962C159.366 273.962 158.491 282.829 152.449 282.216C149.52 281.928 148.296 282.295 147.85 282.82C147.85 283.231 147.789 283.65 147.78 284.079C147.605 290.147 150.919 300.692 158.85 298.795C166.099 297.029 170.077 288.984 170.82 281.989Z" fill="#FCE2D7" stroke="#2B2B2B" stroke-linecap="round" stroke-linejoin="round"/>
<path d="M191.753 272.668C190.739 280.616 186.358 289.351 179.643 293.138C174.545 296.014 170.523 289.64 170.899 280.817C171.231 273.499 175.07 265.157 182.266 262.298C188.527 259.806 192.811 264.326 191.753 272.668Z" fill="#FCE2D7" stroke="#2B2B2B" stroke-linecap="round" stroke-linejoin="round"/>
<path d="M191.587 273.77C189.419 272.895 185.764 275.877 184.417 275.895C182.668 275.895 181.374 269.931 181.374 269.931C181.374 269.931 179.477 277.801 174.773 278.518C172.508 278.859 171.406 279.06 171.022 279.602C171.022 280.004 170.943 280.406 170.925 280.817C170.462 289.658 174.528 296.014 179.669 293.138C186.061 289.535 190.276 281.333 191.587 273.77Z" fill="#FCE2D7" stroke="#2B2B2B" stroke-linecap="round" stroke-linejoin="round"/>
<path d="M89.3362 304.225C90.3505 312.706 86.372 318.11 81.764 315.198C75.6433 311.325 71.0965 302.957 69.304 295.726C67.3541 287.856 70.7293 282.732 76.5527 285.233C83.95 288.311 88.4006 296.381 89.3362 304.225Z" fill="#FCE2D7" stroke="#2B2B2B" stroke-linecap="round" stroke-linejoin="round"/>
<path d="M89.4237 305.318C85.9262 302.493 83.0757 302.834 81.5018 301.575C79.4295 299.923 76.8588 292.56 76.8588 292.56C76.8588 292.56 77.3572 299.066 72.4868 295.988C70.126 294.51 69.3041 294.379 69.1117 294.65C69.1816 295.009 69.2429 295.367 69.339 295.726C71.0878 302.983 75.6696 311.325 81.7991 315.198C86.171 317.988 89.9396 313.266 89.4237 305.318Z" fill="#FCE2D7" stroke="#2B2B2B" stroke-linecap="round" stroke-linejoin="round"/>
<path d="M112.166 306.113C112.429 314.857 106.78 321.922 101.56 321.074C94.565 319.938 90.1406 311.019 89.3187 304.225C88.3219 295.717 93.2622 288.748 99.3479 289.649C106.894 290.733 111.948 298.541 112.166 306.113Z" fill="#FCE2D7" stroke="#2B2B2B" stroke-linecap="round" stroke-linejoin="round"/>
<path d="M112.166 307.25C108.503 305.047 105.005 306.629 103.353 305.79C101.175 304.697 99.0856 297.553 99.0856 297.553C99.0856 297.553 98.4036 304.671 93.1485 303.141C90.6216 302.406 89.5723 302.625 89.2488 303.044C89.2488 303.438 89.2488 303.831 89.3362 304.225C90.1406 311.019 94.5301 319.964 101.578 321.074C106.553 321.887 112 315.504 112.166 307.25Z" fill="#FCE2D7" stroke="#2B2B2B" stroke-linecap="round" stroke-linejoin="round"/>
<path d="M134.481 306.472C133.956 315.277 129.235 322.421 123.988 321.905C116.862 321.205 112.411 312.969 112.193 306.105C111.965 298.873 116.565 289.491 124.111 290.077C131.254 290.663 134.901 299.477 134.481 306.472Z" fill="#FCE2D7" stroke="#2B2B2B" stroke-linecap="round" stroke-linejoin="round"/>
<path d="M134.402 307.635C131.823 305.536 128.351 307.084 126.987 306.288C125.177 305.239 123.429 298.113 123.429 298.113C123.429 298.113 122.624 305.571 116.591 304.356C113.679 303.77 112.569 304.356 112.219 304.898C112.219 305.3 112.219 305.702 112.219 306.113C112.437 312.986 116.888 321.214 124.014 321.914C129.068 322.412 133.676 316.09 134.402 307.635Z" fill="#FCE2D7" stroke="#2B2B2B" stroke-linecap="round" stroke-linejoin="round"/>
<path d="M158.054 303.849C156.865 310.652 152.729 320.821 144.825 321.546C138.704 322.106 134.14 315.347 134.481 306.446C134.778 298.874 138.328 289.308 147.273 289.089C154.496 288.984 159.139 297.632 158.054 303.849Z" fill="#FCE2D7" stroke="#2B2B2B" stroke-linecap="round" stroke-linejoin="round"/>
<path d="M157.923 305.064C154.994 303.525 151.409 305.877 149.809 305.283C147.684 304.487 146.206 297.352 146.206 297.352C146.206 297.352 143.085 304.679 138.101 304.4C135.705 304.268 134.944 304.714 134.603 305.274C134.603 305.685 134.533 306.096 134.507 306.507C134.114 315.461 138.695 322.15 144.851 321.608C152.353 320.917 156.778 311.954 157.923 305.064Z" fill="#FCE2D7" stroke="#2B2B2B" stroke-linecap="round" stroke-linejoin="round"/>
<path d="M178.462 298.025C176.941 305.222 172.342 314.499 165.557 317.262C160.835 319.168 157.127 312.942 158.054 303.91C158.797 296.635 162.671 287.297 170.296 285.784C175.857 284.612 180.246 289.596 178.462 298.025Z" fill="#FCE2D7" stroke="#2B2B2B" stroke-linecap="round" stroke-linejoin="round"/>
<path d="M178.209 299.145C175.804 298.331 172.595 301.226 171.345 300.893C169.692 300.474 168.975 293.82 168.975 293.82C168.975 293.82 167.227 301.637 162.181 301.453C159.733 301.357 158.684 302.004 158.229 302.616C158.159 303.036 158.098 303.49 158.054 303.875C157.084 312.942 160.8 319.116 165.557 317.227C172.088 314.647 176.399 305.974 178.209 299.145Z" fill="#FCE2D7" stroke="#2B2B2B" stroke-linecap="round" stroke-linejoin="round"/>
<path d="M102.33 325.551C103.204 333.473 100.677 339.349 96.4974 337.364C90.1843 334.374 85.2003 326.434 83.163 319.588C80.9595 312.164 84.4746 307.757 90.2193 308.964C97.3368 310.459 101.586 318.635 102.33 325.551Z" fill="#FCE2D7" stroke="#2B2B2B" stroke-linecap="round" stroke-linejoin="round"/>
<path d="M102.4 326.583C99.3131 324.187 96.5325 325.079 95.0898 324.161C93.1836 322.945 90.6129 316.291 90.6129 316.291C90.6129 316.291 90.8665 322.972 86.1185 319.999C83.8364 318.565 83.0932 318.364 82.9095 318.617C82.9882 318.958 83.0669 319.299 83.1631 319.649C85.2004 326.495 90.1582 334.435 96.4975 337.425C100.493 339.262 102.837 333.919 102.4 326.583Z" fill="#FCE2D7" stroke="#2B2B2B" stroke-linecap="round" stroke-linejoin="round"/>
<path d="M124.163 326.417C123.892 334.391 120.447 340.162 114.755 339.961C109.062 339.76 103.187 333.482 102.33 325.551C101.473 317.62 106.194 310.931 112.709 310.923C120.394 310.905 124.39 319.518 124.163 326.417Z" fill="#FCE2D7" stroke="#2B2B2B" stroke-linecap="round" stroke-linejoin="round"/>
<path d="M124.093 327.457C121.356 325.184 117.972 326.504 116.39 325.866C114.309 324.991 112.271 318.556 112.271 318.556C112.271 318.556 111.397 325.665 106.002 324.423C103.379 323.829 102.504 324.056 102.251 324.467C102.251 324.825 102.251 325.184 102.33 325.56C103.204 333.491 109.071 339.769 114.755 339.97C120.202 340.153 123.533 334.907 124.093 327.457Z" fill="#FCE2D7" stroke="#2B2B2B" stroke-linecap="round" stroke-linejoin="round"/>
<path d="M144.501 326.146C143.207 334.321 136.011 340.757 132.172 340.722C128.334 340.687 123.944 334.444 124.163 326.417C124.382 318.39 129.514 311.814 134.516 311.351C139.517 310.888 145.795 317.961 144.501 326.146Z" fill="#FCE2D7" stroke="#2B2B2B" stroke-linecap="round" stroke-linejoin="round"/>
<path d="M144.291 327.195C141.371 325.245 136.885 326.959 135.705 326.399C134.149 325.656 133.493 319.133 133.493 319.133C133.493 319.133 131.394 326.294 127.477 325.149C125.588 324.589 124.565 324.878 124.224 325.315C124.224 325.682 124.172 326.05 124.163 326.417C123.944 334.444 128.334 340.687 132.172 340.722C135.845 340.757 142.639 334.846 144.291 327.195Z" fill="#FCE2D7" stroke="#2B2B2B" stroke-linecap="round" stroke-linejoin="round"/>
<path d="M164.612 321.564C162.584 328.104 157.897 335.982 151.496 338.335C147.002 339.978 143.181 334.304 144.501 326.146C145.691 318.722 150.718 311.019 157.801 308.754C163.449 306.953 167.034 313.782 164.612 321.564Z" fill="#FCE2D7" stroke="#2B2B2B" stroke-linecap="round" stroke-linejoin="round"/>
<path d="M164.28 322.587C162.313 321.503 159.034 323.767 157.862 323.461C156.297 323.033 155.991 316.79 155.991 316.79C155.991 316.79 153.962 324.537 148.795 324.292C146.311 324.178 145.175 324.546 144.72 325.026C144.641 325.402 144.562 325.778 144.501 326.163C143.207 334.339 146.661 339.83 151.496 338.352C156.174 336.918 161.674 330.08 164.28 322.587Z" fill="#FCE2D7" stroke="#2B2B2B" stroke-linecap="round" stroke-linejoin="round"/>
<path d="M180.99 311.517C177.451 318.508 172.672 324.798 166.886 330.08C163.388 333.132 162.269 329.477 164.612 321.599C166.781 314.341 171.109 306.314 177.728 302.59C182.8 299.704 184.758 304.181 180.99 311.517Z" fill="#FCE2D7" stroke="#2B2B2B" stroke-linecap="round" stroke-linejoin="round"/>
<path d="M180.474 312.496C179.494 312.295 176.355 315.356 175.516 315.513C174.397 315.714 175.201 310.267 175.201 310.267C175.201 310.267 172.158 317.594 168.267 318.818C166.396 319.413 165.408 319.929 164.971 320.488C164.848 320.856 164.726 321.223 164.612 321.59C162.26 329.46 163.406 333.123 166.886 330.072C172.254 325.332 176.889 318.906 180.474 312.496Z" fill="#FCE2D7" stroke="#2B2B2B" stroke-linecap="round" stroke-linejoin="round"/>
<path d="M90.0094 214.25L107.27 221.508C119.774 226.754 133.781 239.511 138.284 260.024C142.787 280.538 137.034 303.289 129.068 316.09C121.103 328.891 109.307 337.075 90.0444 343.598C70.7816 350.121 55.2787 348.845 41.2798 343.354C27.2808 337.862 18.7643 331.112 15.0481 324.344C11.332 317.577 3.97839 286.029 14.5235 262.525C25.0686 239.022 52.5419 229.01 65.0456 224.752C73.5654 221.743 81.901 218.237 90.0094 214.25Z" fill="#285E67" stroke="#2B2B2B" stroke-linecap="round" stroke-linejoin="round"/>
<path d="M127.529 253.021C124.032 244.277 122.283 237.011 116.775 231.755C111.266 226.5 99.7677 220.782 95.5181 218.001C91.2686 215.221 90.7615 214.25 88.2607 214.25C85.76 214.25 84.7632 213.752 84.0112 214.25C83.2159 214.867 82.4623 215.536 81.7553 216.253C81.7553 216.253 74.7602 215.754 73.0114 215.247C71.2626 214.74 69.5138 212.746 66.0163 213.997C62.5187 215.247 61.2684 213.997 52.0261 217.494C42.7838 220.992 37.485 221.752 28.5138 227.777C19.5426 233.802 9.5046 249.033 6.25187 254.787C2.99915 260.54 0 281.797 0 289.806C0 297.815 6.25188 315.312 9.0062 319.317C11.7605 323.321 27.5082 334.575 38.0184 338.553C48.5285 342.532 63.0259 343.056 70.7817 340.809C78.5375 338.562 88.5405 336.551 99.5403 328.305C110.54 320.06 121.549 298.288 125.553 289.281C129.558 280.275 131.027 261.773 127.529 253.021Z" fill="#2B2B2B"/>
<path d="M75.5034 217.757C75.5034 217.757 75.1798 217.669 74.5853 217.564C69.1541 216.622 63.5839 216.857 58.2517 218.255C49.2455 220.756 36.4882 225.757 29.4843 231.012C22.4805 236.267 10.4752 252.767 6.9776 262.018C3.48005 271.269 2.9729 289.789 4.47685 297.291C5.9808 304.793 8.22797 316.09 21.5187 325.053C34.8094 334.015 51.0293 341.054 59.2835 339.559C67.5377 338.064 80.0414 333.307 87.0453 330.553C94.0491 327.798 108.809 311.316 113.557 303.788C118.305 296.259 122.301 280.529 122.301 265.026C122.301 249.523 117.553 237.509 112.551 231.511C107.55 225.512 94.294 220.257 88.5405 219.269C82.787 218.281 75.5034 217.757 75.5034 217.757Z" fill="#F4F4F4"/>
<path d="M122.274 265.026C122.281 260.923 121.933 256.827 121.234 252.785C117.789 247.11 109.395 234.606 104.271 233.749C98.2637 232.761 75.7307 231.012 75.7307 231.012L59.4759 232.507C59.4759 232.507 52.3671 237.203 47.9777 240.377C57.1803 242.053 65.7494 246.213 72.7578 252.409C85.2179 263.776 85.2178 285.828 79.8404 296.032C74.4629 306.236 63.979 314.438 50.662 315.268C43.3266 315.707 35.966 315.447 28.6799 314.49C29.1676 315.776 29.9597 316.925 30.9883 317.839C37.7386 324.589 40.4929 332.843 61.2509 334.846C65.0894 335.222 69.3215 335.44 73.6847 335.537C78.6862 333.788 83.5303 331.96 87.0103 330.596C94.0054 327.842 108.774 311.36 113.522 303.831C118.27 296.303 122.274 280.529 122.274 265.026Z" fill="#F4F4F4"/>
<path d="M75.5034 217.757C75.5034 217.757 75.1798 217.669 74.5853 217.564C69.1541 216.622 63.5839 216.857 58.2517 218.255C49.2455 220.756 36.4882 225.757 29.4843 231.012C22.4805 236.267 10.4752 252.767 6.9776 262.018C3.48005 271.269 2.9729 289.789 4.47685 297.291C5.9808 304.793 8.22797 316.09 21.5187 325.053C26.2118 328.241 31.1267 331.09 36.2259 333.578C37.9453 331.115 39.4546 328.512 40.7377 325.796C42.7401 321.546 43.7456 320.296 42.9936 318.294C42.2417 316.291 40.9913 312.54 40.9913 312.54C36.7646 311.13 33.0378 308.524 30.2625 305.038C25.7594 299.284 21.2563 281.779 21.2563 279.777C21.2563 277.775 20.5044 277.775 21.5099 273.027C22.5544 268.497 23.9759 264.063 25.7594 259.771C26.7562 257.524 26.5114 257.017 29.0122 254.525C30.6014 252.847 32.3595 251.338 34.2585 250.021C39.7107 246.782 45.3884 243.939 51.2479 241.514C55.9958 239.765 61.7405 238.261 63.2532 237.763C64.7659 237.264 64.7484 236.512 66.7507 236.512C69.4363 236.702 72.0645 237.381 74.5066 238.515C76.5089 239.511 75.2585 239.765 77.7593 239.765H82.0088C82.6814 239.797 83.3506 239.879 84.0112 240.01C86.5255 236.637 88.8604 233.135 91.0063 229.517C93.0086 225.766 94.0054 222.767 94.0054 222.015C94.0054 221.621 93.4633 220.966 92.9474 220.415C91.4926 219.937 90.009 219.551 88.5055 219.26C82.7258 218.255 75.5034 217.757 75.5034 217.757Z" fill="#F4F4F4"/>
<path d="M77.7594 239.765L76.0106 239.572C76.5698 239.775 77.1695 239.841 77.7594 239.765Z" fill="#999999"/>
<path d="M94.0142 222.006C94.0142 221.613 93.4721 220.957 92.9562 220.406C91.5014 219.928 90.0178 219.542 88.5143 219.252C84.6932 218.587 80.2339 218.15 77.6544 217.923L79.7617 219.505C80.7585 220.257 84.0112 221.508 83.0057 222.758C80.8802 225.24 79.4955 228.27 79.0097 231.502C78.0042 236.748 77.7594 239.756 77.7594 239.756H82.0089C82.6814 239.789 83.3507 239.87 84.0112 240.001C86.5255 236.629 88.8605 233.126 91.0063 229.508C93.0174 225.757 94.0142 222.758 94.0142 222.006Z" fill="#F4F4F4"/>
<path d="M113.522 303.788C118.278 296.285 122.266 280.529 122.266 265.026C122.266 249.523 117.518 237.509 112.516 231.511C108.599 226.815 99.6365 222.583 93.166 220.485C92.6239 221.927 89.3537 230.531 87.7536 233.513C86.0048 236.757 85.2528 240.762 85.7512 242.012C86.2496 243.262 91.5047 246.262 96.0078 247.765C100.511 249.269 100.756 248.264 102.006 250.765C103.256 253.265 103.755 253.773 104.262 256.772C104.769 259.771 105.757 272.773 105.757 276.008C105.757 279.243 104.262 286.265 103.764 287.769C103.265 289.273 102.513 291.765 102.015 293.269C101.516 294.773 100.52 297.273 99.5141 297.518C98.5085 297.763 95.5181 300.272 94.0142 301.269C92.5102 302.266 93.2622 302.021 90.5166 304.277C87.771 306.533 81.7727 311.779 79.5081 313.021C77.2434 314.263 77.0073 315.767 73.7546 316.274C70.5019 316.781 69.0067 317.524 67.2492 317.524H61.7405C59.4933 317.524 57.9894 317.769 55.987 317.769C53.9847 317.769 53.7399 318.267 52.4895 317.769C51.2391 317.271 48.2312 316.519 45.984 315.268C43.7369 314.018 44.9872 314.271 41.9794 312.768C38.9715 311.264 35.9811 320.523 36.2259 321.511C36.4707 322.499 37.7298 322.263 37.7298 323.26C37.7298 324.257 37.7298 326.268 36.733 326.513C35.7362 326.758 33.2355 331.27 33.2355 331.27C33.2355 331.27 33.2355 331.584 33.3229 332.083C43.3784 337.329 53.3551 340.59 59.2485 339.524C67.5027 338.02 80.0065 333.272 87.0103 330.518C94.0142 327.763 108.774 311.29 113.522 303.788Z" fill="#F4F4F4"/>
<path d="M21.9821 260.024L8.92748 257.733C8.48154 258.608 8.05309 259.43 7.72083 260.225L21.9821 260.024Z" fill="#F4F4F4"/>
<path d="M4.8528 270.622C4.75662 271.252 4.66044 271.899 4.573 272.554L20.2333 271.75L4.8528 270.622Z" fill="#F4F4F4"/>
<path d="M4.03093 277.984C3.96972 278.754 3.91725 279.532 3.87354 280.301L17.7588 277.775L4.03093 277.984Z" fill="#F4F4F4"/>
<path d="M3.82985 280.634C3.82985 281.578 3.74242 282.522 3.71619 283.458L18.983 279.777L3.82985 280.634Z" fill="#F4F4F4"/>
<path d="M18.0211 322.473C18.9888 323.278 20.0322 324.065 21.1514 324.834L26.2054 318.294L18.0211 322.473Z" fill="#F4F4F4"/>
<path d="M40.7552 238.007L34.4945 227.777C33.8125 228.162 33.148 228.546 32.5184 228.94L40.7552 238.007Z" fill="#F4F4F4"/>
<path d="M18.7295 289.535L3.86487 292.071C3.93482 293.102 4.02226 294.064 4.12719 294.939L18.7295 289.535Z" fill="#F4F4F4"/>
<path d="M4.98401 299.748C5.16763 300.622 5.37748 301.497 5.61357 302.458L21.5187 296.285L4.98401 299.748Z" fill="#F4F4F4"/>
<path d="M25.4796 256.518L14.0251 249.173C13.3955 250.118 12.7835 251.071 12.1976 252.015L25.4796 256.518Z" fill="#F4F4F4"/>
<path d="M9.6969 312.706C10.1079 313.406 10.5713 314.114 11.026 314.814L26.9835 305.038L9.6969 312.706Z" fill="#F4F4F4"/>
<path d="M24.4828 301.042L6.01575 303.936C6.35676 305.099 6.75024 306.306 7.22241 307.53L24.4828 301.042Z" fill="#F4F4F4"/>
<path d="M41.8481 224.157L48.9919 235.76L43.3259 223.519L41.8481 224.157Z" fill="#F4F4F4"/>
<path d="M49.0881 221.228C48.3886 221.481 47.6891 221.752 46.9808 222.024L51.2478 227.506L49.0881 221.228Z" fill="#F4F4F4"/>
<path d="M56.6604 218.71L62.0029 234.51C62.0029 234.51 59.2049 222.408 58.1206 218.29L56.6604 218.71Z" fill="#F4F4F4"/>
<path d="M26.4852 322.298L21.6848 325.184C22.5592 325.743 23.3636 326.285 24.2205 326.836L26.4852 322.298Z" fill="#F4F4F4"/>
<path d="M11.5857 315.609C12.3225 316.63 13.1135 317.611 13.9553 318.547L24.7365 310.791L11.5857 315.609Z" fill="#F4F4F4"/>
<path d="M23.3549 236.949C22.5417 237.867 21.711 238.838 20.8804 239.861L34.241 246.769L23.3549 236.949Z" fill="#F4F4F4"/>
<path d="M29.8954 230.715C29.7555 230.82 29.6156 230.907 29.4844 231.012C29.1784 231.24 28.8636 231.493 28.5488 231.764L40.493 243.262L29.8954 230.715Z" fill="#F4F4F4"/>
<path d="M115.244 235.445C114.449 234.06 113.54 232.744 112.525 231.511C112.403 231.362 112.263 231.222 112.131 231.082L108.52 240.018L115.244 235.445Z" fill="#F4F4F4"/>
<path d="M100.38 319.71C96.7947 322.281 92.5102 325.297 92.5102 325.297L90.5166 322.298L91.1724 328.061C94.449 325.515 97.527 322.723 100.38 319.71Z" fill="#F4F4F4"/>
<path d="M90.8489 328.332L84.7281 320.829L86.2234 330.867L87.0365 330.553C88.3926 329.969 89.6728 329.224 90.8489 328.332Z" fill="#F4F4F4"/>
<path d="M64.8707 338.238C66.3484 337.836 67.8699 337.364 69.4088 336.901L66.5058 323.785L64.8707 338.238Z" fill="#F4F4F4"/>
<path d="M55.2787 339.699L55.4973 334.566L53.9409 339.567C54.4043 339.611 54.8503 339.699 55.2787 339.699Z" fill="#F4F4F4"/>
<path d="M115.524 240.018L112.77 242.021H118.278L116.022 243.516C116.022 243.516 116.774 243.262 116.774 244.513C117.003 246.531 117.336 248.536 117.771 250.52L119.275 253.773C120.18 254.287 120.993 254.949 121.68 255.731C120.986 249.968 119.442 244.34 117.098 239.03L115.524 240.018Z" fill="#F4F4F4"/>
<path d="M117.028 283.782C115.524 288.031 114.772 292.525 113.023 294.537C111.275 296.548 110.523 302.791 109.771 304.295C109.019 305.799 109.517 306.043 107.768 309.043C107.073 310.333 106.589 311.726 106.334 313.17C108.934 310.204 111.335 307.07 113.522 303.788C118.278 296.285 122.266 280.529 122.266 265.026C122.269 262.168 122.103 259.313 121.767 256.474V263.024L119.267 265.524L120.77 268.523L119.267 270.027C119.267 270.027 118.523 279.532 117.028 283.782Z" fill="#F4F4F4"/>
<path d="M85.76 242.012C86.2584 243.262 91.5134 246.262 96.0165 247.766C99.0856 248.789 100.179 248.64 100.957 249.252C100.834 248.902 100.642 248.649 100.52 248.264C100.266 247.512 98.7709 245.763 97.2669 244.268C95.8336 242.938 94.3304 241.686 92.7638 240.517C92.7638 240.517 87.7623 239.013 86.5119 239.258C85.996 239.363 85.7425 240.053 85.6375 240.832C85.607 241.229 85.6485 241.629 85.76 242.012Z" fill="#F4F4F4"/>
</svg>
