<svg width="292" height="295" viewBox="0 0 292 295" fill="none" xmlns="http://www.w3.org/2000/svg">
<path d="M168.69 77.4532C166.597 63.9573 158.995 56.0204 158.995 56.0204C149.747 49.944 142.437 56.6919 142.437 56.6919C142.437 56.6919 135.126 49.944 125.878 56.0204C125.878 56.0204 118.266 63.9463 116.183 77.4532C114.09 90.9491 122.296 96.8604 122.296 96.8604H162.587C162.587 96.8604 170.793 90.9601 168.7 77.4532H168.69Z" fill="#2B2B2B" stroke="#2B2B2B" stroke-linecap="round" stroke-linejoin="round"/>
<path d="M173.918 92.5454C173.918 92.5454 191.138 90.7841 197.679 103.465C204.221 116.136 222.278 174.236 220.721 177.407C219.163 180.577 207.959 180.577 203.909 177.054C199.86 173.532 181.491 138.328 181.491 138.328L173.927 92.5564L173.918 92.5454Z" fill="white" stroke="#2B2B2B" stroke-linecap="round" stroke-linejoin="round"/>
<path d="M177.899 108.782C177.899 108.782 185.19 130.292 186.757 147.674L181.491 138.328L177.899 108.782Z" fill="#2B2B2B" stroke="#2B2B2B" stroke-linecap="round" stroke-linejoin="round"/>
<path d="M186.942 207.338C183.915 196.77 174.521 175.293 174.521 173.884C174.521 172.475 182.396 146.419 182.396 134.805C182.396 123.192 173.918 92.5563 173.918 92.5563C173.918 92.5563 160.961 90.1566 157.973 86.3258C154.984 82.4949 155.461 63.3189 155.461 63.3189L142.407 61.5796L129.354 63.3189C129.354 63.3189 129.821 82.4949 126.842 86.3258C123.854 90.1566 110.897 92.5563 110.897 92.5563C110.897 92.5563 102.418 123.192 102.418 134.805C102.418 146.419 110.294 172.486 110.294 173.884C110.294 175.282 100.9 196.77 97.8725 207.338C94.8451 217.905 92.1195 238.325 91.8177 247.825L142.417 282.688L193.016 247.825C192.715 238.314 189.989 217.894 186.962 207.338H186.942Z" fill="white" stroke="#2B2B2B" stroke-linecap="round" stroke-linejoin="round"/>
<path d="M139.964 72.2354L154.244 75.5268L153.923 62.8895L139.964 72.2354Z" fill="#2B2B2B" stroke="#2B2B2B" stroke-linecap="round" stroke-linejoin="round"/>
<path d="M122.277 96.8605C122.277 96.8605 135.438 96.0679 138.124 96.288" stroke="#2B2B2B" stroke-linecap="round" stroke-linejoin="round"/>
<path d="M162.567 96.8605L148.705 95.9248C148.705 95.9248 145.182 96.6513 145.182 99.1832" stroke="#2B2B2B" stroke-linecap="round" stroke-linejoin="round"/>
<path d="M162.051 10.348C160.659 8.03628 158.858 6.27499 156.24 4.68982C153.982 3.32482 151.528 2.34509 149.046 1.59654C140.606 -0.968348 126.55 1.21127 121.761 10.381C117.77 18.0206 117.468 21.0478 118.208 28.159C118.947 35.2703 122.939 60.1485 126.492 64.4197C130.045 68.6908 138.037 72.2354 139.954 72.2354H143.799C145.727 72.2354 153.709 68.6798 157.262 64.4197C160.815 60.1485 164.806 35.2703 165.546 28.159C166.023 23.5687 165.546 18.9563 164.008 14.6411C163.424 13.0119 162.791 11.6029 162.042 10.348H162.051Z" fill="white" stroke="#2B2B2B" stroke-linecap="round" stroke-linejoin="round"/>
<path d="M128.341 35.9528C128.341 35.9528 132.809 38.3856 137.433 35.0171" stroke="#2B2B2B" stroke-linecap="round" stroke-linejoin="round"/>
<path d="M138.426 24.9116C138.426 24.9116 130.979 20.2332 126.852 27.7187" stroke="#2B2B2B" stroke-width="2" stroke-linecap="round" stroke-linejoin="round"/>
<path d="M156.62 35.9528C156.62 35.9528 152.151 38.3856 147.528 35.0171" stroke="#2B2B2B" stroke-linecap="round" stroke-linejoin="round"/>
<path d="M146.525 24.9116C146.525 24.9116 153.972 20.2332 158.099 27.7187" stroke="#2B2B2B" stroke-width="2" stroke-linecap="round" stroke-linejoin="round"/>
<path d="M146.525 29.403C146.525 29.403 144.043 37.4499 145.036 38.1984C146.029 38.947 147.352 40.6312 146.69 42.6897C146.029 44.7482 144.374 45.3096 143.877 45.3096" stroke="#2B2B2B" stroke-linecap="round" stroke-linejoin="round"/>
<path d="M144.549 54.6554C144.549 55.6902 143.916 56.5268 143.147 56.5268C142.378 56.5268 141.745 55.6902 141.745 54.6554C141.745 53.6207 142.378 52.7841 143.147 52.7841C143.916 52.7841 144.549 53.6207 144.549 54.6554Z" fill="#2B2B2B"/>
<path d="M164.027 15.3676C163.443 13.6504 162.811 12.1643 162.061 10.8543C160.669 8.42152 158.868 6.57217 156.25 4.90995C153.991 3.4789 151.538 2.44413 149.056 1.65155C141.483 -0.770228 131.544 0.561753 125.304 6.26394C118.422 12.5496 116.416 25.1098 119.006 34.3015C120.271 33.7181 121.147 32.199 121.108 30.6579C121.06 28.5553 119.512 26.739 119.561 24.6364C119.609 22.6109 121.079 21.0588 122.17 19.4516C124.798 15.5768 125.752 10.0948 129.402 7.48584C131.456 6.01075 134.026 5.76858 136.45 5.92269C138.475 6.05479 140.48 6.46209 142.514 6.49512C144.198 6.51713 145.698 5.90067 147.372 5.75756C150.701 5.48236 154.118 6.94644 156.191 9.96266C158.761 13.7054 159.978 18.571 162.548 21.5542C165.118 24.5484 163.005 26.794 162.246 29.9753C161.594 32.7164 164.203 34.3456 164.933 34.7418C165.225 32.6393 165.439 30.856 165.565 29.6011C166.042 24.7795 165.565 19.925 164.027 15.3786V15.3676Z" fill="#2B2B2B" stroke="#2B2B2B" stroke-linecap="round" stroke-linejoin="round"/>
<path d="M118.996 34.2906C118.996 34.2906 116.592 31.8358 114.606 34.2575C112.62 36.6903 113.944 41.9302 115.102 44.1648C116.261 46.3995 121.556 49.0304 121.556 49.0304L118.996 34.2796V34.2906Z" fill="white" stroke="#2B2B2B" stroke-linecap="round" stroke-linejoin="round"/>
<path d="M165.127 34.2906C165.127 34.2906 167.649 31.9789 169.508 34.5327C171.367 37.0866 169.8 42.2274 168.534 44.396C167.269 46.5646 162.178 48.6341 162.178 48.6341L165.127 34.2795V34.2906Z" fill="white" stroke="#2B2B2B" stroke-linecap="round" stroke-linejoin="round"/>
<path d="M91.8079 247.825L150.506 290.438L192.997 247.825C192.763 240.417 191.05 226.371 188.87 215.539C136.956 222.914 105.728 218.004 95.8477 215.902C93.7061 226.69 92.0318 240.494 91.7982 247.825H91.8079Z" fill="#285E67" stroke="#285E67" stroke-linecap="round" stroke-linejoin="round"/>
<path d="M95.2344 219.248C141.745 228.583 178.6 221.131 189.444 218.423C188.675 214.24 187.828 210.376 186.952 207.338C183.925 196.77 174.531 175.293 174.531 173.884C174.531 172.475 182.406 146.419 182.406 134.805C182.406 123.192 173.927 92.5563 173.927 92.5563C173.927 92.5563 170.238 91.8738 166.344 90.6519C166.558 100.999 165.575 137.744 140.402 134.101C115.745 130.545 117.828 99.9977 119.093 90.4537C114.986 91.7967 110.917 92.5453 110.917 92.5453C110.917 92.5453 102.438 123.181 102.438 134.794C102.438 146.408 110.313 172.475 110.313 173.873C110.313 175.271 100.919 196.759 97.8919 207.327C96.9672 210.563 96.0619 214.735 95.2539 219.237L95.2344 219.248Z" fill="#FCE2D7" stroke="#2B2B2B" stroke-linecap="round" stroke-linejoin="round"/>
<path d="M133.276 216.893C133.276 216.893 157.7 207.69 160.085 205.675C162.47 203.65 165.741 201.977 165.741 201.977L183.603 198.278L181.52 192.554C181.52 192.554 160.377 196.935 155.023 199.962C149.659 202.989 133.276 216.904 133.276 216.904V216.893Z" fill="#2B2B2B" stroke="#2B2B2B" stroke-linecap="round" stroke-linejoin="round"/>
<path d="M123.386 171.671L162.811 154.279" stroke="#2B2B2B" stroke-linecap="round" stroke-linejoin="round"/>
<path d="M159.929 160.795L146.467 166.233" stroke="#2B2B2B" stroke-linecap="round" stroke-linejoin="round"/>
<path d="M110.897 92.5453C110.897 92.5453 97.1034 90.4317 87.4469 101.704C77.7904 112.976 61.2906 143.249 61.2906 148.18C61.2906 153.112 73.1179 154.169 80.5939 149.941C88.0699 145.714 103.324 123.181 103.324 123.181L110.887 92.5453H110.897Z" fill="white" stroke="#2B2B2B" stroke-linecap="round" stroke-linejoin="round"/>
<path d="M205.895 159.629C204.931 159.574 199.821 162.843 195.333 166.123C189.6 170.317 172.496 184.452 165.332 185.85C158.167 187.259 155.364 186.554 155.364 186.554C155.364 186.554 146.914 182.327 144.734 181.975C142.553 181.623 138.932 182.845 135.973 183.406C133.014 183.967 131.038 183.131 131.164 184.1C131.291 185.079 131.407 186.609 133.384 187.171C135.36 187.732 138.319 187.446 138.319 187.446C138.319 187.446 141.278 187.589 141.775 187.721C142.271 187.864 122.403 198.179 122.403 198.179C122.403 198.179 122.16 198.74 123.016 199.291C123.883 199.852 133.267 197.651 133.267 197.651L133.627 198.872C133.627 198.872 120.924 205.147 120.67 205.708C120.427 206.27 120.544 207.525 121.41 207.525C122.277 207.525 134.338 203.243 134.338 203.243L134.61 204.597C134.61 204.597 124.993 211.708 124.739 212.126C124.496 212.544 124.739 213.799 125.606 213.656C126.472 213.513 136.703 208.637 136.703 208.637L137.122 209.495C137.122 209.495 131.515 215.616 131.641 216.177C131.768 216.739 132.507 217.432 133.247 216.871C133.987 216.309 142.378 211.146 142.378 211.146C142.378 211.146 154.342 205.841 155.082 205.565C155.821 205.29 164.086 199.423 164.086 199.423C164.086 199.423 190.982 195.383 202.323 188.965C213.673 182.547 220.545 180.302 220.691 177.385C220.828 174.468 218.112 166.09 218.112 166.09" fill="white"/>
<path d="M205.895 159.629C204.931 159.574 199.821 162.843 195.333 166.123C189.6 170.317 172.496 184.452 165.332 185.85C158.167 187.259 155.364 186.554 155.364 186.554C155.364 186.554 146.914 182.327 144.734 181.975C142.553 181.623 138.932 182.845 135.973 183.406C133.014 183.967 131.038 183.131 131.164 184.1C131.291 185.079 131.407 186.609 133.384 187.171C135.36 187.732 138.319 187.446 138.319 187.446C138.319 187.446 141.278 187.589 141.775 187.721C142.271 187.864 122.403 198.179 122.403 198.179C122.403 198.179 122.16 198.74 123.016 199.291C123.883 199.852 133.267 197.651 133.267 197.651L133.627 198.872C133.627 198.872 120.924 205.147 120.67 205.708C120.427 206.27 120.544 207.525 121.41 207.525C122.277 207.525 134.338 203.243 134.338 203.243L134.61 204.597C134.61 204.597 124.993 211.708 124.739 212.126C124.496 212.544 124.739 213.799 125.606 213.656C126.472 213.513 136.703 208.637 136.703 208.637L137.122 209.495C137.122 209.495 131.515 215.616 131.641 216.177C131.768 216.739 132.507 217.432 133.247 216.871C133.987 216.309 142.378 211.146 142.378 211.146C142.378 211.146 154.342 205.841 155.082 205.565C155.821 205.29 164.086 199.423 164.086 199.423C164.086 199.423 190.982 195.383 202.323 188.965C213.673 182.547 220.545 180.302 220.691 177.385C220.828 174.468 218.112 166.09 218.112 166.09" stroke="#2B2B2B" stroke-linecap="round" stroke-linejoin="round"/>
<path d="M66.9268 136.17C66.9268 136.17 79.6691 128.222 96.3636 121.926C113.058 115.629 123.893 111.655 133.997 106.526C144.101 101.396 142.641 103.047 143.079 103.047C143.517 103.047 155.967 106.03 156.843 106.195C157.72 106.36 170.462 111.49 170.462 111.49C170.462 111.49 170.608 112.976 169.44 113.483L168.272 113.978C168.272 113.978 167.542 115.464 166.364 115.629C165.196 115.794 162.412 116.29 161.973 116.29C161.535 116.29 159.773 117.28 158.021 117.776C156.269 118.271 154.361 118.767 153.339 118.932C152.317 119.097 147.187 119.427 147.187 119.427C147.187 119.427 143.089 120.583 138.689 120.748C134.299 120.913 128.731 120.087 128.731 120.087C128.731 120.087 85.8213 153.871 80.5452 157.35C75.2692 160.828 69.8569 164.472 65.4569 163.151C61.0667 161.83 57.9906 160.168 58.7207 156.029C59.4508 151.89 61.2127 143.282 66.9171 136.159L66.9268 136.17Z" fill="white" stroke="#2B2B2B" stroke-linecap="round" stroke-linejoin="round"/>
<path d="M145.123 106.36C145.123 106.36 154.351 107.681 156.688 107.846C159.034 108.012 170.452 111.49 170.452 111.49" stroke="#2B2B2B" stroke-linecap="round" stroke-linejoin="round"/>
<path d="M145.863 110.499L159.627 111.171L168.262 113.978" stroke="#2B2B2B" stroke-linecap="round" stroke-linejoin="round"/>
<path d="M145.707 114.308L153.037 114.815L161.964 116.301" stroke="#2B2B2B" stroke-linecap="round" stroke-linejoin="round"/>
<path d="M163.473 273.507C163.473 273.507 177.033 251.898 189.804 242.024C202.576 232.15 229.18 223.817 251.082 233.691C272.985 243.565 288.891 267.64 290.711 271.041C292.531 274.432 290.974 282.457 288.365 286.475C285.756 290.493 279.244 294.5 275.846 294.5H116.806C116.806 294.5 116.027 291.109 118.636 288.324C121.245 285.55 136.625 279.683 139.76 277.833C142.884 275.984 146.535 264.866 152.541 262.708C158.547 260.551 163.492 273.507 163.492 273.507H163.473Z" fill="#285E67" stroke="#285E67" stroke-linecap="round" stroke-linejoin="round"/>
<path d="M261.605 294.5H117.234C117.234 294.5 116.455 291.109 119.045 288.324C121.624 285.55 136.859 279.683 139.964 277.833C143.06 275.984 146.681 264.866 152.619 262.708C158.557 260.551 163.463 273.507 163.463 273.507C163.463 273.507 165.011 275.973 167.6 277.69C170.18 279.407 174.492 281.29 175.349 281.29C176.205 281.29 194.73 278.549 204.201 273.397C213.673 268.256 227.311 257.964 238.359 256.588C249.408 255.212 258.451 261.387 264.048 265.845" fill="#285E67"/>
<path d="M261.605 294.5H117.234C117.234 294.5 116.455 291.109 119.045 288.324C121.624 285.55 136.859 279.683 139.964 277.833C143.06 275.984 146.681 264.866 152.619 262.708C158.557 260.551 163.463 273.507 163.463 273.507C163.463 273.507 165.011 275.973 167.6 277.69C170.18 279.407 174.492 281.29 175.349 281.29C176.205 281.29 194.73 278.549 204.201 273.397C213.673 268.256 227.311 257.964 238.359 256.588C249.408 255.212 258.451 261.387 264.048 265.845" stroke="#285E67" stroke-linecap="round" stroke-linejoin="round"/>
<path d="M268.351 270.997C268.351 270.997 263.902 276.655 259.6 277.514C255.297 278.373 239.79 275.632 234.621 274.256" stroke="white" stroke-linecap="round" stroke-linejoin="round"/>
<path d="M175.339 281.29C176.195 281.29 194.72 278.549 204.192 273.397C213.663 268.256 227.301 257.964 238.35 256.588C249.398 255.212 258.441 261.387 264.039 265.845" stroke="white" stroke-linecap="round" stroke-linejoin="round"/>
<path d="M175.027 281.246L173.81 294.5H117.234C117.234 294.5 116.455 291.109 119.045 288.324C121.624 285.55 136.859 279.683 139.964 277.833C143.06 275.984 146.681 264.866 152.619 262.708C158.557 260.551 163.463 273.507 163.463 273.507C163.463 273.507 165.011 275.973 167.6 277.69C169.956 279.253 173.733 280.96 175.037 281.246H175.027Z" fill="white" stroke="#285E67" stroke-linecap="round" stroke-linejoin="round"/>
<path d="M134.522 273.507C134.522 273.507 120.33 251.898 106.955 242.024C93.5796 232.15 65.7392 223.817 42.8147 233.691C19.8902 243.565 3.24436 267.64 1.32669 271.041C-0.581256 274.432 1.05412 282.457 3.77975 286.475C6.50538 290.482 13.3292 294.5 16.8823 294.5H183.37C183.37 294.5 184.187 291.109 181.462 288.324C178.736 285.55 162.626 279.683 159.355 277.833C156.084 275.984 152.259 264.866 145.98 262.708C139.701 260.551 134.513 273.507 134.513 273.507H134.522Z" fill="#285E67" stroke="#285E67" stroke-linecap="round" stroke-linejoin="round"/>
<path d="M30.7927 294.5H183.37C183.37 294.5 184.187 291.109 181.462 288.324C178.736 285.55 162.626 279.683 159.355 277.833C156.084 275.984 152.259 264.866 145.98 262.708C139.701 260.551 134.513 273.507 134.513 273.507C134.513 273.507 132.877 275.973 130.142 277.69C127.407 279.407 122.861 281.29 121.955 281.29C121.05 281.29 101.474 278.549 91.4672 273.397C81.4505 268.256 67.0436 257.964 55.3623 256.588C43.681 255.212 34.1219 261.387 28.2131 265.845" fill="#285E67"/>
<path d="M30.7927 294.5H183.37C183.37 294.5 184.187 291.109 181.462 288.324C178.736 285.55 162.626 279.683 159.355 277.833C156.084 275.984 152.259 264.866 145.98 262.708C139.701 260.551 134.513 273.507 134.513 273.507C134.513 273.507 132.877 275.973 130.142 277.69C127.407 279.407 122.861 281.29 121.955 281.29C121.05 281.29 101.474 278.549 91.4672 273.397C81.4505 268.256 67.0436 257.964 55.3623 256.588C43.681 255.212 34.1219 261.387 28.2131 265.845" stroke="#285E67" stroke-linecap="round" stroke-linejoin="round"/>
<path d="M23.6671 270.997C23.6671 270.997 28.3688 276.655 32.9245 277.514C37.4705 278.373 53.8535 275.632 59.3145 274.256" stroke="white" stroke-linecap="round" stroke-linejoin="round"/>
<path d="M121.955 281.29C121.05 281.29 101.474 278.549 91.4672 273.397C81.4505 268.256 67.0436 257.964 55.3623 256.588C43.681 255.212 34.1219 261.387 28.2131 265.845" stroke="white" stroke-linecap="round" stroke-linejoin="round"/>
<path d="M122.286 281.246L123.571 294.5H183.36C183.36 294.5 184.178 291.109 181.452 288.324C178.726 285.55 162.616 279.683 159.345 277.833C156.074 275.984 152.249 264.866 145.97 262.708C139.691 260.551 134.503 273.507 134.503 273.507C134.503 273.507 132.868 275.973 130.132 277.69C127.64 279.253 123.649 280.96 122.267 281.246H122.286Z" fill="white" stroke="#285E67" stroke-linecap="round" stroke-linejoin="round"/>
<path d="M95.7796 237.048C95.7796 237.048 115.083 243.18 131.787 261.574" stroke="white" stroke-linecap="round" stroke-linejoin="round"/>
<path d="M189.814 242.024C189.814 242.024 172.993 249.796 158.897 261.079" stroke="white" stroke-linecap="round" stroke-linejoin="round"/>
</svg>
